<?xml version="1.0" encoding="UTF-8"?>
<svg id="_レイヤー_2" data-name="レイヤー 2" xmlns="http://www.w3.org/2000/svg" width="343.75" height="273.22" viewBox="0 0 343.75 273.22">
  <defs>
    <style>
      .cls-1 {
        fill: #fcf6d9;
      }

      .cls-2 {
        fill: #fcedd9;
      }

      .cls-3 {
        fill: #e8f2ec;
      }
    </style>
  </defs>
  <g id="_レイヤー_1-2" data-name="レイヤー 1">
    <g>
      <rect class="cls-2" x="35.31" y="0" width="152.54" height="89.06"/>
      <rect class="cls-3" x="191.21" y="0" width="152.54" height="89.06"/>
      <rect class="cls-1" width="32.34" height="89.06"/>
      <g>
        <path d="M62.44,29.99c-.32-.04-.48-.04-1.04-.06-.18,2.21-.67,3.8-1.6,5.27.91,1.01,1.69,1.6,2.84,2.13-.39.52-.59.85-.83,1.53-1.19-.71-2.03-1.41-2.93-2.49-.94.99-1.82,1.65-3.39,2.48-.28-.57-.46-.83-.92-1.33,1.51-.6,2.58-1.33,3.46-2.35-.53-.88-.9-1.71-1.16-2.68-.29.48-.41.63-.77,1.06-.22-.39-.36-.59-.67-.9-.32-.03-.39-.03-.81-.03h-.36v2.91c.42-.14.74-.25,1.74-.6l-.03,1.46c-1.89.7-3.64,1.25-5.23,1.62-.13.04-.15.04-.36.11q-.1.03-.2.06l-.28-1.64c.42-.04.46-.04.81-.1v-4.48c0-.78-.01-1.09-.07-1.55h1.46c-.06.48-.07.84-.07,1.54v4.22q.34-.07.83-.21v-7.23h-1.27c-.42,0-.91.03-1.3.07v-1.46c.43.06.83.08,1.37.08h3.25c.59,0,.99-.03,1.4-.07v1.43c-.38-.04-.63-.06-1.13-.06h-.91v2.52h.36c.53,0,.74-.01.99-.04v.63c.77-1.12,1.22-2.23,1.58-3.89.15-.63.25-1.29.25-1.64l1.54.27c-.07.2-.08.25-.14.55-.04.2-.17.7-.36,1.51h2.62c.6,0,.98-.03,1.33-.07v1.43ZM58.11,29.93c-.17.49-.24.66-.38.98.22,1.15.6,2.14,1.16,3.05.35-.64.66-1.51.88-2.45.11-.5.15-.81.21-1.58h-1.88Z"/>
        <path d="M70.93,27.17c0-.31-.01-.52-.07-.76h1.62c-.06.21-.07.42-.07.78v.38h3.38c.78,0,1.29-.03,1.64-.08v1.5c-.49-.06-.87-.07-1.57-.07h-8.25c-.01,1.96-.03,2.82-.1,4.05,1.16-1.12,2-2.48,2.41-3.94l1.46.38c-.35.88-.74,1.68-1.16,2.38v5.63c0,.73.01,1.11.06,1.49h-1.57c.06-.41.08-.83.08-1.53v-2.24c0-.76.01-1.15.04-1.54-.36.52-.5.69-.83,1.01-.29-.48-.35-.57-.55-.84-.07.97-.22,1.91-.42,2.72-.24.97-.5,1.58-.99,2.38-.43-.5-.73-.76-1.22-1.09.55-.88.81-1.68,1.02-3.04.21-1.34.29-2.94.29-5.42,0-.87-.01-1.32-.06-1.81.48.04.97.07,1.55.07h3.29v-.41ZM75.98,37.49c0,.97-.45,1.27-1.85,1.27-.39,0-.64-.01-1.46-.04-.07-.53-.2-.92-.43-1.5.67.11,1.27.17,1.68.17.55,0,.63-.06.63-.48v-4.59h-2.51c-.59,0-.92.01-1.3.06v-1.41c.28.04.56.06,1.22.06h2.59v-.49c0-.56-.01-.84-.07-1.2h1.57c-.06.34-.07.63-.07,1.18v.52h.32c.62,0,.87-.01,1.22-.07v1.44c-.36-.06-.7-.07-1.23-.07h-.31v5.17ZM72.1,32.77c.76.84,1.27,1.57,1.79,2.54l-1.22.79c-.55-1.07-.95-1.68-1.71-2.58l1.13-.74Z"/>
        <path d="M81.5,32.04c-.11.03-.17.06-.25.1-.07.04-.11.06-.17.06-.31,0-.53-.53-.7-1.57h.27c.59,0,2.09-.18,2.98-.36.29-1.22.45-2.16.45-2.82,0-.06,0-.14-.01-.24.6.06,1.18.18,1.57.35.22.08.34.2.34.34,0,.07-.01.13-.08.24q-.21.36-.64,1.91c.34-.04.71-.07.95-.07.57,0,1.02.11,1.34.34.56.41.84,1.23.84,2.51,0,2.09-.38,3.88-1.02,4.76-.45.62-1.04.91-1.86.91-.5,0-.98-.07-1.12-.15q-.11-.07-.15-.59c-.04-.38-.13-.71-.29-1.11.73.25.91.29,1.36.29.67,0,.95-.32,1.26-1.46.21-.74.32-1.69.32-2.73,0-1.09-.27-1.48-1.01-1.48-.25,0-.66.04-.98.08-.04.17-.06.18-.11.36-.39,1.44-1.11,3.32-1.82,4.83-.74,1.53-.92,1.83-1.11,1.83-.11,0-.49-.2-.9-.46-.32-.2-.41-.28-.41-.39q0-.07.57-.98c.77-1.19,1.78-3.52,2.13-4.9-1.04.24-1.61.36-1.74.41ZM90.3,29.17c-.22.17-.38.24-.45.24-.04,0-.08-.03-.13-.1-.29-.48-.78-1.02-1.19-1.37-.03-.03-.04-.06-.04-.08,0-.06.1-.15.34-.34.24-.17.31-.21.41-.21.22,0,1.46,1.25,1.46,1.47,0,.08-.11.18-.39.39ZM88.81,30.66c0-.1.13-.22.53-.55.28-.21.42-.29.53-.29.18,0,.81.67,1.4,1.5.49.7,1.02,1.7,1.02,1.93,0,.14-.04.18-.49.55-.28.22-.6.41-.71.41-.1,0-.14-.04-.24-.28-.27-.67-.5-1.13-.88-1.74-.38-.6-.41-.63-1.08-1.36-.06-.07-.08-.11-.08-.17ZM90.65,26.36c.24,0,1.43,1.19,1.43,1.43,0,.07-.08.15-.36.35-.25.2-.38.27-.43.27q-.07,0-.35-.39c-.24-.32-.69-.8-.94-1.01-.04-.04-.07-.07-.07-.11,0-.11.57-.53.73-.53Z"/>
        <path d="M96.44,32.17c-.56,0-.88.01-1.23.06v-1.44c.32.06.63.07,1.25.07h.32c-.18-.76-.31-1.11-.57-1.6l1.18-.29h-.63c-.6,0-.91.01-1.27.06v-1.44c.35.06.63.07,1.29.07h1.04v-.2c0-.46-.01-.66-.06-.99h1.62c-.06.31-.07.5-.07.98v.21h.91c.64,0,.88-.01,1.25-.07v1.44c-.35-.04-.69-.06-1.26-.06h-.55l1.13.32c-.29.7-.59,1.33-.73,1.57h.28c.6,0,.9-.01,1.23-.07v1.44c-.38-.04-.67-.06-1.23-.06h-1.09v.95h1.04c.59,0,.85-.01,1.22-.07v1.42c-.35-.04-.66-.06-1.22-.06h-.49c.38.46.73.76,1.37,1.18-.29.5-.43.77-.64,1.27-.69-.6-.88-.83-1.3-1.44.01.63.03.97.03,1.05v1.33c0,.48.03.8.07,1.12h-1.54c.04-.31.07-.63.07-1.06v-1.34c0-.27.01-.55.03-.91-.53,1.04-1.18,1.74-2.23,2.49-.17-.56-.36-.94-.67-1.37,1.04-.64,1.81-1.39,2.35-2.31h-.87c-.59,0-.87.01-1.23.07v-1.43c.35.06.62.07,1.26.07h1.36v-.95h-1.4ZM97.48,28.96c.29.57.39.87.59,1.57l-1.22.32h1.85c.36-.66.57-1.18.77-1.89h-1.99ZM106.44,30.6c.6,0,.91-.01,1.23-.08v1.5c-.35-.04-.55-.06-1.08-.06h-.34v5.41c0,.81.01,1.18.08,1.58h-1.58c.07-.41.08-.81.08-1.58v-5.41h-1.43c-.01,1.71-.17,3.11-.49,4.34-.27,1.04-.69,1.97-1.21,2.69-.53-.45-.76-.59-1.32-.88,1.27-1.57,1.61-3.32,1.61-8.4,0-1.12-.01-1.61-.08-2.1,1.53-.04,3.84-.63,4.51-1.15l1.11,1.3c-.14.04-.17.06-.45.15-1.08.41-1.92.6-3.67.91v1.78h3.01Z"/>
        <path d="M114.89,27.16c.35.1.45.17.45.32,0,.1-.01.14-.08.34-.15.41-.27,1.12-.32,2.1-.11,2.25-.17,4.01-.17,5.39,0,.45.04.79.11,1.01.15.46.64.7,1.43.7,1.26,0,2.45-.52,3.54-1.54.5-.48.81-.85,1.33-1.62.08.45.2.74.5,1.37.04.11.07.2.07.32,0,.25-.27.59-.97,1.22-1.39,1.25-2.93,1.89-4.54,1.89-1.06,0-1.85-.27-2.35-.77-.53-.56-.74-1.29-.74-2.68,0-1.09.01-1.93.13-5.2.01-.49.03-.78.03-.91,0-1.19-.01-1.54-.1-2.14.71.03,1.26.08,1.68.2Z"/>
        <path d="M126.24,29.5c0-.41-.01-.95-.04-1.26.64.07,1.12.17,1.5.31.34.13.45.21.45.36q0,.08-.06.22c-.18.48-.24,1.01-.24,2.28,0,1.79.11,2.91.39,3.77.21.66.53,1.04.91,1.04.57,0,1.05-.67,1.57-2.23.27.71.36.92.76,1.43.07.1.11.2.11.29,0,.22-.21.7-.49,1.11-.55.8-1.25,1.23-1.99,1.23-1.08,0-1.89-.87-2.4-2.59-.32-1.12-.48-2.54-.48-4.5v-1.47ZM134.58,29.72c.08,0,.15.04.27.14.7.67,1.43,1.79,1.89,2.88.31.74.6,1.74.6,2.03,0,.14-.07.21-.36.36-.32.17-.98.39-1.15.39-.13,0-.18-.07-.22-.32-.18-1.08-.43-1.86-.87-2.77-.39-.81-.42-.85-1.37-2.03.59-.43,1.05-.69,1.22-.69Z"/>
        <path d="M145.61,30.14c-.42,0-.46.01-.9.01-.74,0-1.16.01-1.84.06-.28.03-.39.03-.45.03-.35,0-.42-.27-.45-1.75.83.11,1.88.14,4.41.14,2.28,0,3.45-.04,4.22-.13.06-.01.13-.01.17-.01.21,0,.25.15.25,1.12,0,.49-.04.57-.25.57q-.1,0-.67-.03c-.17-.01-1.08-.01-2.82-.01v5.18c2.84,0,3.75-.03,4.44-.08.17-.03.28-.03.32-.03h.1c.07,0,.14.03.17.08.04.1.07.49.07,1.02s-.04.62-.27.62t-.22-.01c-.53-.06-2.23-.08-4.58-.08-3.12,0-5.17.06-5.95.17-.14.03-.2.03-.25.03-.14,0-.22-.06-.28-.18-.1-.27-.18-.94-.21-1.61.85.07,1.68.08,4.99.1v-5.2Z"/>
        <path d="M160.7,34.05c-.79.48-1.68.92-2.63,1.33-.63.27-1.02.41-1.12.41s-.17-.03-.25-.13c-.43-.49-.66-.69-1.13-.98,1.13-.34,2.3-.81,3.63-1.5,1.56-.78,2.45-1.44,3.99-2.9-4.22,0-4.86.01-5.62.13-.04.01-.07.01-.1.01-.11,0-.15-.06-.18-.22-.07-.42-.1-.81-.1-1.4.88.11,2.03.17,3.52.18v-.59c0-.45-.04-1.12-.1-1.51.77,0,1.29.04,1.67.13.2.04.29.13.29.27,0,.06-.01.1-.06.18-.08.18-.14.55-.14.97v.57c1.3,0,1.77-.04,2.07-.2.03-.01.06-.01.1-.01.18,0,.38.15.66.48.34.39.48.63.48.78,0,.14-.07.22-.25.35-.25.17-.48.36-1.08.91-.76.7-1.11.99-1.99,1.65v2.97c0,.43.03,1.43.04,1.74.01.22.01.36.01.42v.11c0,.08-.03.14-.08.17-.1.06-.55.1-.92.1h-.1c-.62-.01-.64-.03-.66-.2,0-.13,0-.14.03-.66.01-.42.03-1.13.03-1.96v-1.6ZM163.74,33.26c.32-.43.45-.56.56-.56s.31.08.78.31c.78.38,1.67.92,2.2,1.39.13.1.15.15.15.21,0,.14-.1.31-.49.85-.22.29-.35.41-.48.41-.07,0-.13-.03-.21-.1-.83-.7-1.93-1.43-2.65-1.72-.17-.06-.21-.1-.21-.18,0-.1.13-.34.34-.6Z"/>
        <path d="M54.41,49.48c.11.04.17.13.17.24,0,.06,0,.08-.03.2-.08.31-.1.53-.1,1.09-.03,3.42-.64,5.6-2.12,7.47-.32.39-.45.52-.59.52-.06,0-.13-.03-.24-.08-.38-.24-.73-.36-1.36-.5.97-.98,1.34-1.5,1.76-2.45.59-1.32.83-2.65.83-4.65,0-.92-.03-1.34-.14-2.04.78.01,1.43.1,1.81.22ZM55.91,50.84c0-.69-.04-1.23-.13-1.82,1.51.06,2.06.17,2.06.45,0,.08-.01.13-.07.28-.04.08-.08.31-.1.52q-.04.38-.07,6.54c1.78-1.01,2.94-1.97,4.12-3.46.03.73.08,1.26.21,1.68.04.13.04.17.04.24,0,.22-.14.41-.78,1.01-1.04.95-1.74,1.44-3.04,2.13-.31.15-.49.28-.66.43-.1.08-.22.14-.32.14-.17,0-.67-.34-1.04-.69-.28-.28-.41-.49-.41-.67,0-.07.01-.11.06-.24.1-.27.13-.52.13-1.29v-5.25Z"/>
        <path d="M69.07,48.47c.63-.13,1.23-.18,1.78-.18.28,0,.38.07.38.27,0,.06,0,.1-.04.24-.01.08-.03.18-.03.28,0,.25.03.49.21,1.51,1.13-.18,2.47-.48,3.07-.66.1-.04.13-.04.21-.04.1,0,.14.08.2.35.06.27.17.98.17,1.09,0,.17-.06.2-.6.25-.35.03-.55.06-1.25.18q-.25.04-1.53.27.24,1.23.36,1.89.31-.06.62-.11c1.4-.25,2.35-.46,3-.66.22-.07.36-.11.41-.11.11,0,.15.06.2.2.11.36.25,1.04.25,1.26,0,.13-.03.14-.45.21q-.22.04-.69.13-.76.13-3.04.52.36,1.77.87,3.8c.03.11.04.2.04.22,0,.14-.06.18-.29.27-.39.14-1.12.29-1.32.29-.14,0-.17-.04-.21-.31-.1-.67-.32-1.92-.69-3.98-2.86.53-3.08.59-3.88.87-.18.06-.24.07-.31.07-.11,0-.18-.06-.25-.21-.17-.35-.31-.8-.48-1.49.73-.03,1.5-.14,4.65-.69-.17-.83-.28-1.43-.38-1.91q-2.55.45-3.26.66c-.11.04-.14.04-.17.04q-.22,0-.63-1.64.77-.01,3.78-.5c-.22-1.06-.45-1.86-.7-2.38ZM75.63,50.39c-.29-.55-.6-.95-1.04-1.4-.08-.08-.08-.1-.08-.14,0-.08.08-.17.32-.35.22-.17.31-.21.39-.21.11,0,.25.11.6.49.45.5.77.94.77,1.05,0,.17-.63.67-.81.67-.06,0-.1-.03-.15-.11ZM77.57,49.33c-.08.06-.21.14-.25.15t-.07.03s-.03.01-.04.01c-.04,0-.1-.04-.13-.11-.2-.36-.71-1.04-1.08-1.39t-.07-.1.22-.24c.21-.14.43-.28.46-.28q.17.03.34.17c.38.34,1.05,1.18,1.05,1.34,0,.07-.15.21-.43.41Z"/>
        <path d="M85.79,53.15c2.56,0,4.03-.03,5.45-.13h.18c.42,0,.42.01.42,1.13,0,.57-.04.67-.28.67h-.06c-.92-.04-1.44-.04-5.49-.04-1.48,0-2.23.01-3.52.06h-.41c-.45,0-.52.01-.78.06-.07,0-.13.01-.15.01-.15,0-.25-.07-.28-.2-.08-.35-.14-1.06-.14-1.71,1.13.11,2.13.14,5.06.14Z"/>
        <path d="M107.59,51.25c-.32-.04-.48-.04-1.04-.06-.18,2.21-.67,3.8-1.6,5.27.91,1.01,1.69,1.6,2.84,2.13-.39.52-.59.85-.83,1.53-1.19-.71-2.03-1.41-2.93-2.49-.94.99-1.82,1.65-3.39,2.48-.28-.57-.46-.83-.92-1.33,1.51-.6,2.58-1.33,3.46-2.35-.53-.88-.9-1.71-1.16-2.68-.29.48-.41.63-.77,1.06-.22-.39-.36-.59-.67-.9-.32-.03-.39-.03-.81-.03h-.36v2.91c.42-.14.74-.25,1.74-.6l-.03,1.46c-1.89.7-3.64,1.25-5.23,1.62-.13.04-.15.04-.36.11q-.1.03-.2.06l-.28-1.64c.42-.04.46-.04.81-.1v-4.48c0-.78-.01-1.09-.07-1.55h1.46c-.06.48-.07.84-.07,1.54v4.22q.34-.07.83-.21v-7.23h-1.27c-.42,0-.91.03-1.3.07v-1.46c.43.06.83.08,1.37.08h3.25c.59,0,.99-.03,1.4-.07v1.43c-.38-.04-.63-.06-1.13-.06h-.91v2.52h.36c.53,0,.74-.01.99-.04v.63c.77-1.12,1.22-2.23,1.58-3.89.15-.63.25-1.29.25-1.64l1.54.27c-.07.2-.08.25-.14.55-.04.2-.17.7-.36,1.51h2.62c.6,0,.98-.03,1.33-.07v1.43ZM103.26,51.19c-.17.49-.24.66-.38.98.22,1.15.6,2.14,1.16,3.05.35-.64.66-1.51.88-2.45.11-.5.15-.81.21-1.58h-1.88Z"/>
        <path d="M112.48,50.03c-.45.59-.77.92-1.37,1.43-.28-.38-.56-.67-.95-1.01,1.04-.76,1.78-1.74,2.09-2.73l1.43.25q-.1.17-.21.39c-.1.21-.13.27-.21.42h1.78c.55,0,.94-.03,1.32-.07v.94c.53-.64.84-1.23,1.02-1.93l1.43.25q-.29.63-.38.81h2.65c.6,0,1.05-.01,1.47-.07v1.39c-.43-.04-.78-.06-1.4-.06h-1.11c.21.32.36.62.56,1l-1.36.36c-.18-.49-.34-.83-.64-1.36h-.88c-.31.41-.5.66-.79.92h.2c-.03.22-.04.38-.06.73h3.96c.69,0,1.04-.03,1.43-.08v1.39c-.43-.06-.76-.07-1.43-.07h-3.96v.69h3.04c.69-.01,1.11-.03,1.26-.04-.04.25-.06.63-.06,1.12v1.26c0,.43-.13.73-.39.87-.18.1-.5.14-.99.14-.24,0-.57-.01-.94-.04-.03-.41-.08-.64-.28-1.16.28.04.63.07.85.07.29,0,.38-.06.38-.24v-.78h-2.87v.48c.63.8,1.61,1.6,2.65,2.14.78.42,1.76.79,2.96,1.11-.49.53-.76.9-.97,1.33-.98-.35-1.96-.81-2.63-1.23-.42-.27-.71-.5-1.21-.91-.41-.36-.55-.49-.85-.91.01.38.03.62.03.98v1.02c.03.77.04.97.13,1.4h-1.65c.08-.45.11-.87.11-1.42v-.98c-.01-.18,0-.55.01-.94-.53.73-1.18,1.3-2.09,1.86-.67.41-1.47.81-2.25,1.12-.35-.57-.46-.71-1.04-1.29.94-.28,2.04-.74,2.83-1.16.52-.29,1.02-.64,1.54-1.09.45-.38.62-.56.98-1.04v-.48h-2.62v1.18c0,.52.01.84.06,1.09h-1.51c.06-.34.07-.71.07-1.23v-1.18c0-.43-.01-.73-.06-1.09.32.03.74.04,1.18.04h2.89v-.69h-3.67c-.56,0-1.01.03-1.43.07v-1.39c.42.06.83.08,1.43.08h3.67c-.01-.38-.03-.52-.06-.73h.9c-.24-.25-.46-.45-.77-.67.14-.11.18-.15.29-.25-.34-.01-.43-.01-.62-.01h-.77c.22.36.31.52.55.98l-1.33.38c-.22-.63-.35-.91-.6-1.36h-.71Z"/>
        <path d="M131.33,55.84c-1.39.81-1.78,1.22-1.78,1.83,0,.25.1.42.31.55.31.18,1,.28,1.88.28.76,0,1.81-.07,2.52-.17.29-.04.46-.08,1.02-.22h.07c.1,0,.17.07.21.17.08.29.14.71.14,1.22,0,.21-.07.29-.25.34-.34.07-1.89.15-2.91.15-1.71,0-2.62-.11-3.29-.39-.81-.34-1.22-.97-1.22-1.85,0-.81.38-1.53,1.13-2.13.6-.48.74-.57,2.03-1.3-.11-.46-.32-.66-.76-.66-.57,0-1.18.22-1.83.66-.41.28-.88.67-1.18.97-.42.43-.46.46-.58.46-.14,0-.43-.32-.73-.81-.14-.24-.22-.42-.22-.52,0-.13.03-.15.36-.36,1.15-.77,2.1-1.75,2.68-2.76-1,.07-1.51.08-2.06.08-.21,0-.25-.04-.32-.28-.04-.18-.11-.92-.13-1.3.48.07.76.08,1.43.08.55,0,1.15-.01,1.78-.04.29-.8.39-1.3.41-1.96,1.25.21,1.82.42,1.82.66,0,.06-.01.08-.06.17-.1.18-.21.41-.39.84q-.03.06-.04.1c.8-.11,1.5-.25,1.99-.36.31-.08.38-.1.45-.1.11,0,.17.04.2.13.06.25.14.9.14,1.09,0,.15-.06.22-.24.27-.45.13-1.99.36-3.28.49-.42.77-.71,1.22-1.15,1.7.63-.29,1.11-.41,1.67-.41.63,0,1.05.36,1.33,1.15,1.39-.76,2.13-1.16,2.21-1.22.64-.38.91-.59,1.22-.94.57.59,1.19,1.47,1.19,1.71,0,.08-.06.14-.24.18-.69.18-1.96.73-4.09,1.76.01.25.04.9.04,1.34v.67c0,.17-.03.25-.1.29-.07.07-.45.11-.87.11-.48,0-.56-.04-.56-.27v-.06c.03-.41.04-.94.04-1.27v-.07Z"/>
        <path d="M144.21,53.5c-.46.01-.56.03-.9.06v-.59c-.8.55-1.29.81-2.35,1.29-.24-.49-.43-.8-.8-1.23,1.05-.39,1.65-.7,2.58-1.32-.78-.9-1.2-1.29-1.89-1.76l1.11-.81q.22.17.43.35v-1.4c.25.04.63.07,1.09.07h2.51c.63,0,.84-.01,1.15-.06.14.53.32.85.84,1.47.43-.42.52-.52.78-.85.2-.25.22-.29.28-.39q.07-.11.11-.18l1.23.69q-.07.07-.52.62c-.24.28-.67.71-.99,1.01.34.29.48.41.8.64.57-.52,1.06-1.09,1.39-1.62l1.23.7c-.07.07-.13.14-.36.42-.34.39-.79.85-1.21,1.23.74.45,1.15.64,2.14,1.02-.31.39-.39.55-.76,1.34-1.08-.5-1.51-.74-2.21-1.22v.59c-.39-.04-.64-.06-1.29-.06v1.44h2.13c.67,0,1.01-.01,1.42-.08v1.43c-.41-.04-.81-.07-1.42-.07h-2.13v2.02c0,.27.01.31.21.35.17.04.43.07.8.07.71,0,1.06-.06,1.22-.21.15-.14.24-.55.29-1.4.5.27.92.39,1.44.49-.28,2.25-.53,2.45-3.11,2.45-1.82,0-2.25-.22-2.25-1.15v-2.62h-1.74c-.18.81-.43,1.4-.84,1.93-.66.9-1.47,1.42-3.12,2.07-.25-.5-.53-.88-.95-1.32,1.25-.35,1.89-.66,2.48-1.19.48-.42.74-.85.95-1.5h-1.71c-.62,0-.98.01-1.42.07v-1.43c.41.07.76.08,1.42.08h1.92c0-.18.01-.27.01-.41v-1.04ZM143.19,49.42c-.24,0-.55.03-.8.06.71.62,1.02.9,1.46,1.39.57-.53.91-.9,1.32-1.44h-1.98ZM148.84,52.23c-.99-.83-1.54-1.4-2.28-2.44-.76,1.05-1.32,1.65-2.28,2.44h4.57ZM145.64,54.65c0,.1-.01.15-.01.29h1.58v-1.44h-1.57v1.15Z"/>
        <path d="M161.43,54.38c-.31.38-.46.52-.99,1.01v2.77c.95-.17,1.65-.34,2.8-.64v1.43c-1,.27-1.34.35-2.83.64-.9.18-.95.2-1.69.31-.22.04-.43.07-.63.11-.28.04-.52.08-.64.13l-.34-1.57c.52-.01,1-.06,1.86-.17v-1.85c-.92.62-1.58.97-2.86,1.5-.25-.57-.45-.94-.84-1.46,1.78-.48,3.19-1.21,4.33-2.21h-2.55c-.6,0-1.12.03-1.57.08v-1.44c.39.06.79.07,1.56.07h3.7v-.85h-2.63c-.79,0-1.06.01-1.47.06v-1.34c.39.04.7.06,1.47.06h2.63v-.83h-3.24c-.71,0-1.13.01-1.5.07v-1.41c.42.06.88.08,1.58.08h3.15c0-.57-.03-.84-.08-1.16h1.67c-.07.32-.08.55-.08,1.16h3.38c.73,0,1.19-.03,1.6-.08v1.41c-.36-.06-.8-.07-1.51-.07h-3.46v.83h2.83c.81,0,1.12-.01,1.5-.06v1.34c-.42-.04-.69-.06-1.5-.06h-2.83v.85h3.88c.76,0,1.18-.01,1.54-.07v1.44c-.45-.06-.95-.08-1.54-.08h-3.12c.25.56.56,1.05,1.05,1.67.67-.53,1.26-1.12,1.57-1.56l1.34.84q-.1.08-.31.29c-.39.41-.95.9-1.6,1.4.92.7,1.72,1.11,2.94,1.53-.43.52-.66.9-.88,1.44-1.82-.79-3.05-1.67-4.01-2.84-.62-.77-1.13-1.7-1.58-2.77h-.08Z"/>
      </g>
      <g>
        <path d="M201.74,28.25c0-.59-.03-1.05-.08-1.61h1.65c-.06.43-.08.94-.08,1.61v1.32h2.19v-1.47c0-.56-.03-.98-.08-1.47h1.61c-.06.46-.08.91-.08,1.44v1.5h2.27v-1.5c0-.62-.01-.98-.08-1.44h1.62c-.06.48-.08.9-.08,1.44v1.5h.48c.62,0,1.06-.03,1.47-.08v1.51c-.43-.06-.87-.08-1.47-.08h-.48v2.96c0,.42.01.8.06,1.22-.34-.03-.67-.04-1.12-.04h-2.98c-.46,0-.8.01-1.16.04.03-.31.04-.69.04-1.13v-3.04h-2.19v5.98h7.02c.73,0,1.15-.01,1.7-.08v1.55c-.56-.06-1.06-.08-1.7-.08h-7.02v.71h-1.57c.06-.57.08-1.15.08-1.89v-6.19h-.27c-.6,0-1.06.03-1.48.08v-1.51c.43.06.87.08,1.48.08h.27v-1.32ZM206.85,30.91v2.83h2.27v-2.83h-2.27Z"/>
        <path d="M217.69,32.46c-.56,0-.98.01-1.41.06.06-.42.07-.76.07-1.39v-2.8c0-.67-.01-1.01-.07-1.43.45.04.8.06,1.46.06h7.21c.64,0,.99-.01,1.44-.06-.06.38-.07.76-.07,1.43v2.8c0,.63.01,1.01.07,1.39-.43-.04-.84-.06-1.43-.06h-1.19c.88.87,2.25,1.57,3.94,2.02-.32.5-.48.8-.71,1.46-1.19-.45-2.17-.95-2.93-1.49v2.97c0,.59.03,1.04.08,1.49h-1.62c.06-.42.08-.85.08-1.49v-2.51c0-.5-.01-.77-.06-1.06h.77c-.64-.55-.84-.76-1.33-1.39h-1.4c-.38.55-.67.87-1.26,1.4h1.01c-.03.14-.04.32-.06.62-.08,2.49-1.09,3.68-3.84,4.55-.28-.5-.38-.64-.9-1.25,1.27-.34,1.89-.62,2.46-1.11.55-.46.81-1.19.81-2.23v-.17c-.92.7-1.72,1.12-3.11,1.65-.28-.67-.39-.9-.74-1.39,1.71-.46,3-1.18,3.82-2.09h-1.11ZM217.78,29.2h2.79v-1.02h-2.79v1.02ZM217.78,31.34h2.79v-.99h-2.79v.99ZM221.96,29.2h2.91v-1.02h-2.91v1.02ZM221.96,31.34h2.91v-.99h-2.91v.99Z"/>
        <path d="M232.68,30.38c-.36.08-.49.13-.99.31-.18.07-.28.1-.36.1-.31,0-.59-.57-.84-1.78.9-.04,1.22-.08,2.77-.32,1.68-.25,3.81-.57,4.93-.71,1.26-.17,2.27-.34,2.8-.45.1-.03.14-.03.21-.03.18,0,.25.08.38.43.11.29.2.71.2.91,0,.17-.06.22-.25.22-.29,0-.56.03-.83.07-2.37.39-4.26,2.46-4.26,4.65,0,1.64,1.29,2.72,3.47,2.91.2.01.27.08.27.25,0,.35-.14,1.02-.27,1.33-.07.15-.18.22-.36.22s-.6-.08-1.04-.21c-2.38-.7-3.63-2.21-3.63-4.36,0-1.16.38-2.24,1.11-3.17.39-.5.73-.78,1.53-1.33-1.83.31-3.77.67-4.83.94ZM239.85,30.74c.2,0,1.39,1.33,1.39,1.54,0,.07-.08.15-.34.38-.27.22-.28.22-.39.27q-.07.03-.1.03c-.06,0-.07-.01-.32-.41-.22-.35-.46-.66-.91-1.12-.03-.03-.07-.1-.07-.11.03-.07.04-.11.06-.11.04-.06.28-.25.34-.29.14-.07.22-.13.24-.14.01-.03.04-.03.04-.03h.07ZM242.25,31.71c-.21.15-.34.24-.41.24-.06,0-.08-.03-.15-.14-.42-.63-.63-.9-1.08-1.33-.03-.04-.06-.08-.06-.11,0-.07.08-.15.28-.29.2-.14.36-.22.43-.22.1,0,.27.13.56.42.41.42.78.94.78,1.06,0,.08-.1.18-.36.38Z"/>
        <path d="M252.18,31.19c.32,1.21,1.04,2.51,1.93,3.52.99,1.15,2.12,1.9,3.71,2.56-.46.53-.64.83-.98,1.54-2.66-1.36-4.34-3.15-5.35-5.71-.41,1.37-1.12,2.55-2.2,3.6-.91.91-1.88,1.54-3.21,2.13-.22-.52-.5-.94-.94-1.42,1.64-.66,2.8-1.46,3.67-2.51.84-1.02,1.29-2.1,1.53-3.71h-3.17c-.85,0-1.25.01-1.7.08v-1.68c.42.06.91.08,1.7.08h3.31c.03-.62.04-.94.04-1.47,0-.67-.03-1.08-.1-1.47h1.78c-.07.48-.08.66-.1,1.58,0,.57-.01.88-.03,1.36h3.56c.76,0,1.25-.03,1.7-.08v1.68c-.52-.06-.94-.08-1.68-.08h-3.47Z"/>
        <path d="M263.73,33.11c.6,1.06,1.15,1.71,2.07,2.48q-.45.6-.81,1.27c-.78-.78-1.16-1.27-1.61-2.11-.17.67-.36,1.19-.69,1.82-.43.84-.78,1.3-1.5,1.98-.41-.57-.56-.76-1.06-1.18.83-.7,1.22-1.21,1.58-2.06.28-.62.45-1.29.56-2.2h-.6c-.46,0-.9.03-1.25.07v-1.5c.35.04.71.07,1.18.07h.77c.04-.7.04-1.09.06-1.75h-.69c-.41,0-.7.01-1.12.07v-1.42c.36.04.7.07,1.19.07h.63c0-1.3,0-1.54-.08-2.03h1.55q-.06.45-.07,2.03h.46c.48,0,.78-.01,1.18-.07v1.4c-.38-.04-.64-.06-1.06-.06h-.6q-.01.83-.06,1.75h.6c.46,0,.81-.01,1.18-.07v1.49c-.36-.04-.66-.06-1.05-.06h-.76ZM268.33,34.82c-.14,1.22-.32,1.78-.8,2.44-.52.73-1.09,1.15-2.4,1.79-.42-.6-.6-.8-1.04-1.16,1.91-.6,2.68-1.42,2.89-3.07-.42,0-.77.01-1.06.04.03-.31.04-.76.04-1.33v-5.2c0-.56-.03-1.01-.06-1.33.32.04.67.06,1.29.06h3.4c.73,0,.94-.01,1.3-.06-.03.39-.04.76-.04,1.36v5.22c0,.55,0,.84.04,1.27-.15-.01-.2-.01-.39-.01q-.14,0-.83-.03h-.32v2.33c0,.24.1.29.55.29.58,0,.62-.13.67-1.86.43.29.74.45,1.26.6-.14,2.34-.35,2.61-2.13,2.61-1.26,0-1.7-.25-1.7-.97v-3h-.69ZM267.33,29.27h3.15v-.91h-3.15v.91ZM267.33,31.39h3.15v-.91h-3.15v.91ZM267.33,33.53h3.15v-.94h-3.15v.94Z"/>
        <path d="M278.32,30.32c.55,1.3.73,1.61,1.37,2.37-.28.41-.39.63-.62,1.21-.34-.53-.59-1.04-.87-1.83.03.63.06,1.22.06,1.85v3.45c0,.71.01,1.23.07,1.65h-1.53c.06-.43.08-.97.08-1.65v-2.82c.03-.91.06-1.48.06-1.71-.35,1.28-.8,2.3-1.27,2.97-.21-.73-.28-.91-.6-1.51.49-.7.81-1.33,1.16-2.27.2-.53.42-1.25.52-1.7h-.41c-.39,0-.64.01-.95.06v-1.41c.25.04.49.06.97.06h.52v-1.09c0-.71-.01-1.02-.07-1.4h1.53c-.06.38-.07.64-.07,1.39v1.11h.38c.34,0,.52-.01.78-.06v1.4c-.24-.03-.49-.04-.77-.04h-.34ZM282.52,34.85c.04-.27.04-.28.06-.71h-1.56c-.38,0-.73.01-1.18.04.03-.34.04-.59.04-1.08v-2.4c0-.43-.01-.73-.04-1.08.32.03.7.04,1.2.04h4.72c.52,0,.88-.01,1.22-.04-.04.34-.06.6-.06,1.11v2.35c0,.5.01.76.06,1.09-.41-.03-.74-.04-1.21-.04h-1.81c-.03.43-.04.48-.07.71h2.41c.63,0,1.01-.01,1.37-.07v1.4c-.41-.06-.83-.08-1.36-.08h-2.03c.69.84,1.82,1.33,3.53,1.54-.28.46-.43.83-.6,1.39-1.81-.39-3.08-1.13-3.99-2.3-.36.5-.8.91-1.42,1.3-.67.43-1.37.71-2.46.98-.17-.45-.36-.8-.71-1.25.84-.15,1.34-.28,1.83-.49.71-.29,1.23-.67,1.6-1.18h-1.53c-.52,0-.98.03-1.36.07v-1.37c.36.04.77.06,1.37.06h1.96ZM282.56,28.78c0,.24.01.38.04.62h-1.44c.03-.21.04-.41.04-.62h-.62c-.66,0-.81,0-1.22.04v-1.33c.36.04.67.06,1.22.06h.62v-.18c0-.36-.01-.55-.06-.8h1.47c-.04.24-.06.42-.06.81v.17h1.65v-.18c0-.35-.01-.56-.06-.8h1.47c-.04.24-.06.43-.06.81v.17h.7c.66,0,1.02-.01,1.4-.07v1.36c-.42-.04-.8-.06-1.39-.06h-.71c0,.25.01.43.04.62h-1.44c.03-.28.04-.38.04-.62h-1.65ZM281.23,31.37h4.31v-.59h-4.31v.59ZM281.23,33.01h4.31v-.59h-4.31v.59Z"/>
        <path d="M292.08,30.69c-.25.01-.41.03-.58.04-.13.01-.14.01-.15.01-.11,0-.17-.04-.21-.18-.07-.22-.17-.97-.18-1.39.15.01.56.03,1.06.03.15,0,1.26-.07,1.75-.11.24-1.13.32-1.72.32-2.48,1.44.2,1.96.36,1.96.63,0,.1-.01.13-.22.45-.11.17-.15.32-.39,1.19.66-.11,1.05-.21,1.57-.38.1-.03.14-.04.21-.04.1,0,.13.07.21.48.07.35.11.64.11.8,0,.17-.04.2-.41.28-.48.11-1.29.25-2.16.36-.52,1.57-.87,2.41-1.51,3.73-.49.98-.77,1.5-1.15,2.09-.11.17-.18.22-.28.22-.14,0-.53-.21-1.02-.57-.22-.15-.28-.22-.28-.32s.06-.18.24-.43c.41-.5.94-1.37,1.4-2.3.39-.77.53-1.09.94-2.2-.55.04-.59.06-1.23.1ZM296.69,38.75c-1.53,0-2.56-.84-2.56-2.09s1.08-2.26,2.52-2.26c.34,0,.49.01,1.06.1-.06-.67-.06-.94-.11-2.24,0-.27-.03-.63-.06-1.08.71.07,1.26.15,1.53.27.11.04.17.11.17.22,0,.07-.01.13-.03.22-.07.29-.08.5-.08.88,0,.52.04,1.4.08,2.09,1,.45,1.4.67,2.1,1.22.31.24.42.36.42.48,0,.14-.07.27-.46.9-.17.28-.29.41-.39.41q-.08,0-.48-.36c-.31-.31-.66-.55-1.15-.84,0,1.3-.95,2.09-2.56,2.09ZM296.66,35.76c-.67,0-1.13.32-1.13.81,0,.46.42.76,1.05.76.74,0,1.13-.38,1.13-1.12,0-.11,0-.22-.01-.22-.28-.14-.66-.22-1.04-.22ZM301.9,31.78c-.17.24-.25.31-.35.31-.07,0-.13-.03-.22-.13-.35-.34-.84-.7-1.36-1.02q-.34-.21-.95-.49c-.2-.08-.27-.14-.27-.25,0-.1.07-.22.28-.55.34-.49.42-.57.55-.57.27,0,1.3.53,2.05,1.04.6.41.78.57.78.73,0,.11-.22.53-.5.94Z"/>
        <path d="M310.07,28.16c.29-.59.49-1.15.62-1.78l1.69.17c-.24.63-.43,1.08-.69,1.61h3.11c.78,0,1.2-.01,1.67-.06-.06.45-.07.8-.07,1.64v7.54c0,.78.01,1.12.08,1.54h-1.55v-.67h-6.63v.67h-1.53c.06-.34.08-.91.08-1.56v-7.52c0-.78-.01-1.19-.07-1.64.45.04.87.06,1.64.06h1.64ZM308.32,31.05h6.62v-1.51h-6.62v1.51ZM308.32,33.87h6.62v-1.53h-6.62v1.53ZM308.32,36.79h6.62v-1.62h-6.62v1.62Z"/>
        <path d="M322.69,30.85c.38.28.76.62,1.11.97.25-.28.36-.43.6-.77-.34-.32-.64-.57-1.16-.94l.66-.9c.43.28.7.48,1.09.83.21-.45.31-.7.5-1.36h-1.77c-.62,1.16-1.51,2.25-2.46,3.01-.31-.45-.55-.71-.95-1.04,1.04-.73,1.77-1.58,2.34-2.77.27-.56.39-.92.46-1.42l1.47.18c-.06.11-.07.14-.11.27q-.04.11-.13.31s0,.03-.08.25h1.07c.43,0,.71-.01.97-.06l.73.74q-.07.22-.15.5c-.04.13-.14.43-.21.64.34.03.62.04,1.08.04h.42c.04-.48.06-.85.06-1.39,0-.74-.01-.97-.07-1.34h1.54c-.04.32-.06.48-.06,1.19,0,.46-.01.71-.07,1.54h1.6c.59,0,1.02-.03,1.41-.08v1.47c-.42-.06-.83-.08-1.41-.08h-1.47c.34.87.76,1.47,1.47,2.16.6.56,1.01.83,1.81,1.21-.35.46-.5.73-.76,1.41-1.57-.92-2.67-2.1-3.25-3.49-.27.7-.69,1.42-1.11,1.89-.46.53-1.08,1-1.99,1.51-.22-.45-.45-.74-.9-1.19,1.01-.46,1.54-.87,2.09-1.54.41-.5.71-1.16.91-1.96h-.22c-.64,0-.84.01-1.3.07v-.8c-.53,1.39-1.15,2.37-2.16,3.4-.39.41-1,.9-1.6,1.3-.35.22-.63.39-1.4.8-.21-.49-.42-.81-.87-1.25,1.2-.53,1.71-.84,2.52-1.51-.29-.36-.71-.77-1.05-1.01l.81-.81ZM320.5,38.08c.87-.91,1.34-1.67,1.82-2.87l1.25.57c-.58,1.51-.95,2.17-1.83,3.28l-1.23-.98ZM324.61,38.88c-.03-1.34-.1-2.17-.29-3.21l1.33-.15c.25,1.18.32,1.78.42,3.21l-1.46.15ZM327.76,38.77c-.17-1.2-.38-2.02-.78-3.07l1.29-.28c.45,1.11.69,1.83.95,3.05l-1.46.29ZM331.48,38.91c-.67-1.43-1.06-2.06-1.91-3.11l1.11-.69c1.05,1.27,1.47,1.89,2.1,3.05l-1.3.74ZM330.96,26.72c.49.55.92,1.12,1.23,1.67l-1.11.7c-.39-.79-.62-1.11-1.18-1.77l1.05-.6Z"/>
        <path d="M207.03,52.87c-.03.21-.06.49-.06.8,0,1.65.66,2.83,2.14,3.8.9.59,1.76.92,3.25,1.25-.36.56-.5.85-.76,1.55-1.74-.63-2.61-1.05-3.53-1.74-.92-.69-1.4-1.26-1.86-2.27-.39,1.15-.87,1.81-1.74,2.48-.94.71-1.99,1.15-3.66,1.51-.18-.55-.35-.88-.76-1.44,1.76-.28,2.84-.69,3.73-1.41,1.09-.91,1.68-2.19,1.68-3.7,0-.32-.01-.56-.07-.83h1.62ZM204.11,48.3c-.87,1.15-.98,1.29-1.7,2,.69.59,1.27,1.22,1.92,2.02l-1.36.76c-.74-1.16-1.19-1.7-2.34-2.76.98-.99,1.55-1.76,1.95-2.56l1.53.55ZM203.98,53.98c-.56,1.3-.97,1.96-1.85,2.98l-1.32-.77c.94-.94,1.27-1.47,1.75-2.72l1.41.5ZM207.71,48.29c-.66.9-1.02,1.34-1.62,1.95.97.87.99.9,1.75,1.76l-1.34.73c-.6-.9-1.22-1.61-2.14-2.49.98-.99,1.46-1.64,1.86-2.49l1.5.55ZM211.38,48.28q-.15.21-.73.98c-.29.41-.49.64-.85.99.87.74,1.18,1.05,1.96,1.96l-1.29.83c-1.26-1.64-1.46-1.86-2.42-2.76,1.05-1.12,1.5-1.74,1.89-2.58l1.44.57ZM211.43,54.12c-.71,1.11-1.11,1.57-2.13,2.51l-1.22-.85c.92-.71,1.44-1.32,2-2.34l1.34.69Z"/>
        <path d="M224.24,50.87c.64,0,.91-.01,1.18-.06v1.26c-.32-.04-.7-.06-1.18-.06h-2.3v.63h2.98c.66,0,.92-.01,1.19-.06v1.22c-.36-.04-.67-.06-1.19-.06h-2.98v.63h3.98c.64,0,.97-.01,1.34-.07v1.32c-.41-.06-.7-.07-1.34-.07h-9.15c-.63,0-.94.01-1.36.07v-1.32c.36.06.71.07,1.36.07h3.77v-.63h-2.75c-.52,0-.83.01-1.19.06v-1.22c.31.04.55.06,1.19.06h2.75v-.63h-2.05c-.49,0-.87.01-1.19.06v-1.26c.32.04.55.06,1.19.06h2.05c-.01-.27-.03-.43-.06-.64h1.53c-.04.24-.04.31-.07.64h2.3ZM220.52,48.57c0-.32-.03-.55-.08-.84h1.65c-.06.28-.07.49-.07.84v.17h3.7c.64,0,1.09-.01,1.49-.06-.04.31-.06.55-.06.99v.88c0,.41.01.71.06,1.04h-1.46v-1.64h-8.75v1.64h-1.46c.04-.34.06-.56.06-1.05v-.87c0-.43-.01-.69-.06-.99.39.04.83.06,1.48.06h3.5v-.17ZM218.25,60.18h-1.48c.06-.53.07-.87.07-1.25v-1.64c0-.42-.01-.76-.06-1.15.29.03.55.04,1.04.04h7.09c.53,0,.76-.01,1.06-.04-.04.32-.06.62-.06,1.15v1.65c0,.48.03.87.07,1.23h-1.48v-.57h-6.25v.57ZM218.25,58.42h6.25v-1.09h-6.25v1.09Z"/>
        <path d="M231.56,53.3c-.11.03-.17.06-.25.1-.07.04-.11.06-.17.06-.31,0-.53-.53-.7-1.57h.27c.59,0,2.09-.18,2.98-.36.29-1.22.45-2.16.45-2.82,0-.06,0-.14-.01-.24.6.06,1.18.18,1.57.35.22.08.34.2.34.34,0,.07-.01.13-.08.24q-.21.36-.64,1.91c.34-.04.71-.07.95-.07.57,0,1.02.11,1.34.34.56.41.84,1.23.84,2.51,0,2.09-.38,3.88-1.02,4.76-.45.62-1.04.91-1.86.91-.5,0-.98-.07-1.12-.15q-.11-.07-.15-.59c-.04-.38-.13-.71-.29-1.11.73.25.91.29,1.36.29.67,0,.95-.32,1.26-1.46.21-.74.32-1.69.32-2.73,0-1.09-.27-1.48-1.01-1.48-.25,0-.66.04-.98.08-.04.17-.06.18-.11.36-.39,1.44-1.11,3.32-1.82,4.83-.74,1.53-.92,1.83-1.11,1.83-.11,0-.49-.2-.9-.46-.32-.2-.41-.28-.41-.39q0-.07.57-.98c.77-1.19,1.78-3.52,2.13-4.9-1.04.24-1.61.36-1.74.41ZM240.36,50.43c-.22.17-.38.24-.45.24-.04,0-.08-.03-.13-.1-.29-.48-.78-1.02-1.19-1.37-.03-.03-.04-.06-.04-.08,0-.06.1-.15.34-.34.24-.17.31-.21.41-.21.22,0,1.46,1.25,1.46,1.47,0,.08-.11.18-.39.39ZM238.87,51.92c0-.1.13-.22.53-.55.28-.21.42-.29.53-.29.18,0,.81.67,1.4,1.5.49.7,1.02,1.7,1.02,1.93,0,.14-.04.18-.49.55-.28.22-.6.41-.71.41-.1,0-.14-.04-.24-.28-.27-.67-.5-1.13-.88-1.74-.38-.6-.41-.63-1.08-1.36-.06-.07-.08-.11-.08-.17ZM240.71,47.62c.24,0,1.43,1.19,1.43,1.43,0,.07-.08.15-.36.35-.25.2-.38.27-.43.27q-.07,0-.35-.39c-.24-.32-.69-.8-.94-1.01-.04-.04-.07-.07-.07-.11,0-.11.57-.53.73-.53Z"/>
        <path d="M249.12,53.5c-.46.01-.56.03-.9.06v-.59c-.8.55-1.29.81-2.35,1.29-.24-.49-.43-.8-.8-1.23,1.05-.39,1.65-.7,2.58-1.32-.78-.9-1.21-1.29-1.89-1.76l1.11-.81q.22.17.43.35v-1.4c.25.04.63.07,1.09.07h2.51c.63,0,.84-.01,1.15-.06.14.53.32.85.84,1.47.43-.42.52-.52.78-.85.2-.25.22-.29.28-.39q.07-.11.11-.18l1.23.69q-.07.07-.52.62c-.24.28-.67.71-.99,1.01.34.29.48.41.8.64.57-.52,1.06-1.09,1.39-1.62l1.23.7c-.07.07-.13.14-.36.42-.34.39-.79.85-1.21,1.23.74.45,1.15.64,2.14,1.02-.31.39-.39.55-.76,1.34-1.08-.5-1.51-.74-2.21-1.22v.59c-.39-.04-.64-.06-1.29-.06v1.44h2.13c.67,0,1.01-.01,1.42-.08v1.43c-.41-.04-.81-.07-1.42-.07h-2.13v2.02c0,.27.01.31.21.35.17.04.43.07.8.07.71,0,1.06-.06,1.22-.21.15-.14.24-.55.29-1.4.5.27.92.39,1.44.49-.28,2.25-.53,2.45-3.11,2.45-1.82,0-2.25-.22-2.25-1.15v-2.62h-1.74c-.18.81-.43,1.4-.84,1.93-.66.9-1.47,1.42-3.12,2.07-.25-.5-.53-.88-.95-1.32,1.25-.35,1.89-.66,2.48-1.19.48-.42.74-.85.95-1.5h-1.71c-.62,0-.98.01-1.42.07v-1.43c.41.07.76.08,1.42.08h1.92c0-.18.01-.27.01-.41v-1.04ZM248.09,49.42c-.24,0-.55.03-.8.06.71.62,1.02.9,1.46,1.39.57-.53.91-.9,1.32-1.44h-1.98ZM253.75,52.23c-.99-.83-1.54-1.4-2.28-2.44-.76,1.05-1.32,1.65-2.28,2.44h4.57ZM250.55,54.65c0,.1-.01.15-.01.29h1.58v-1.44h-1.57v1.15Z"/>
        <path d="M263.13,51.76c-.53,1.11-1.08,1.95-1.83,2.82-.34-.5-.66-.84-1.09-1.13,1.01-1.04,1.82-2.44,2.27-3.94.18-.57.24-.84.29-1.25l1.54.38q-.03.1-.13.35c-.03.08-.04.1-.14.45-.06.18-.11.36-.35,1.01h2.19v-1.02c0-.71-.03-1.12-.08-1.62h1.71c-.06.42-.08.91-.08,1.61v1.04h2.82c.69,0,1.26-.03,1.81-.08v1.48c-.57-.06-1.15-.08-1.78-.08h-2.84v2.47h2.33c.69,0,1.23-.03,1.67-.08v1.48c-.48-.06-1.04-.08-1.65-.08h-2.34v2.86h3.24c.76,0,1.34-.03,1.86-.1v1.54c-.63-.07-1.09-.1-1.82-.1h-8.24c-.71,0-1.27.03-1.91.1v-1.54c.56.07,1.16.1,1.86.1h3.46v-2.86h-2.07c-.62,0-1.18.03-1.62.08v-1.47c.45.06.87.07,1.61.07h2.09v-2.47h-2.75Z"/>
      </g>
      <rect class="cls-2" x="35.31" y="92.08" width="152.54" height="89.06"/>
      <rect class="cls-3" x="191.21" y="92.08" width="152.54" height="89.06"/>
      <rect class="cls-1" y="92.08" width="32.34" height="89.06"/>
      <g>
        <path d="M204.49,132.82c.62,0,.74,0,.97-.03-.03.24-.04.35-.07.59-.15,1.88-.42,2.98-1.04,4.29.48.48.92.77,1.44.99.6.24,1.19.35,2.38.43.35.03.83.04,1.02.04,1.62,0,3.29-.07,4.58-.18-.22.62-.27.77-.36,1.5-1.32.03-2.54.04-4.08.04-1.98,0-3.32-.22-4.3-.71-.46-.24-.85-.53-1.33-.98-.59.9-.95,1.32-1.72,2-.28-.48-.5-.77-.95-1.25.84-.7,1.23-1.13,1.74-1.89-.25-.36-.43-.69-.64-1.11q-.43-.85-.6-1.21l1.19-.63c.28.83.42,1.16.7,1.69.32-.77.45-1.29.6-2.34h-1.27c-.38,0-.74.01-1.09.04q.83-1.34,1.15-1.97c.5-.94.62-1.21.85-1.86h-1.34c-.36,0-.59.01-.91.06v-1.4c.31.04.56.06.97.06h1.42c.5,0,.74-.01.97-.06l.64.88c-.11.15-.11.17-.34.67-.25.6-.87,1.81-1.18,2.33h.62ZM208.38,130.32h-1.57c-.38,0-.69.01-.95.04v-1.19c.32.04.57.06,1.02.06h1.5c0-.42-.01-.57-.07-.88h1.48c-.06.27-.06.38-.07.88h1.98c.41,0,.73-.01,1.02-.04-.03.24-.04.5-.04.84v.99c.43,0,.67-.01.97-.07v1.23c-.31-.04-.53-.06-.97-.06v1.01c0,.32.01.62.04.8-.43-.03-.57-.03-.94-.03h-2.06v.78h2.09c.48,0,.79-.01,1.13-.06v1.15c-.31-.03-.64-.04-1.15-.04h-2.07v.81h2.55c.57,0,.85-.01,1.2-.07v1.25c-.35-.03-.7-.04-1.2-.04h-2.55c0,.62.01.81.07,1.13h-1.48c.06-.35.07-.62.07-1.13h-1.93c-.56,0-.81.01-1.15.06v-1.25c.31.04.66.06,1.15.06h1.93v-.81h-1.61c-.39,0-.73.01-1.05.06v-1.16c.32.04.62.06,1.05.06h1.61v-.78h-1.64c-.38,0-.59.01-.87.04v-1.16c.28.04.48.06.94.06h1.57v-.71h-2.07c-.57,0-.8.01-1.15.04v-1.22c.32.06.53.07,1.21.07h2.02v-.7ZM211.37,131.02v-.7h-1.64v.7h1.64ZM209.73,132.84h1.64v-.71h-1.64v.71Z"/>
        <path d="M216.36,130.62c.32.06.57.07,1.08.07h2.79c.56,0,.77-.01,1.08-.06v1.37c-.28-.03-.46-.04-1.02-.04h-2.84c-.46,0-.74.01-1.08.06v-1.4ZM228,134.75q-.1.15-.27.55c-.57,1.25-1.09,2.06-1.82,2.84.91.59,1.53.83,3,1.23-.31.53-.48.87-.67,1.42-1.57-.53-2.44-.95-3.36-1.65-.91.7-1.85,1.19-3.22,1.7-.22-.49-.42-.8-.7-1.12,0,.45.01.56.04.94h-1.32v-.45h-1.57v.63h-1.36c.04-.41.07-.84.07-1.3v-1.99c0-.43-.01-.73-.06-1.06.35.03.6.04,1.02.04h2.3c.53,0,.66,0,.91-.04-.03.27-.04.48-.04.98v2.03c1.22-.36,2.09-.77,2.87-1.32-.83-.88-1.21-1.48-1.74-2.79-.22,0-.39.01-.6.04v-1.4c.27.04.5.06.87.06h3.96c.52,0,.76-.01.94-.04l.74.71ZM216.79,128.74c.35.04.57.06,1.12.06h1.95c.55,0,.77-.01,1.12-.06v1.27c-.39-.03-.64-.04-1.12-.04h-1.95c-.48,0-.77.01-1.12.04v-1.27ZM216.81,132.68c.27.03.46.04.88.04h2.41c.43,0,.6-.01.85-.04v1.26c-.32-.04-.46-.04-.85-.04h-2.41c-.45,0-.59,0-.88.04v-1.26ZM216.81,134.57c.27.03.46.04.88.04h2.4c.45,0,.62-.01.87-.04v1.26c-.28-.03-.46-.04-.88-.04h-2.4c-.41,0-.62.01-.87.04v-1.26ZM218.11,139.02h1.57v-1.34h-1.57v1.34ZM223.78,130.16c-.04,1.16-.18,1.81-.56,2.55-.28.53-.53.87-.99,1.29-.39-.38-.79-.7-1.16-.92,1.05-.78,1.39-1.61,1.39-3.35,0-.45-.01-.57-.06-.92.35.04.66.06,1.05.06h2.07c.45,0,.79-.01,1.12-.06-.03.31-.04.64-.04,1.13v1.99c0,.18.1.24.42.24q.55,0,.62-1.62c.42.24.77.38,1.22.5-.18,2.19-.32,2.35-2.03,2.35-1.3,0-1.58-.15-1.58-.87v-2.37h-1.46ZM223.49,135.37c.34.78.71,1.33,1.34,1.93.59-.6.85-1.01,1.33-1.93h-2.67Z"/>
        <path d="M239.16,134.62c0,.92-.74,1.67-1.67,1.67s-1.67-.74-1.67-1.67.74-1.67,1.67-1.67,1.67.74,1.67,1.67Z"/>
        <path d="M249.13,139.05c0,.69.01,1.22.07,1.71h-1.58c.06-.45.08-1.01.08-1.68v-2.23c0-.49,0-.74.03-1.43-.34.43-.56.66-1.01,1.02-.14-.6-.31-.99-.62-1.47.88-.67,1.6-1.44,2.25-2.42.29-.43.53-.84.62-1.07l1.2.84q-.1.14-.2.31s-.06.08-.1.17t-.14.22c-.15.24-.31.48-.62.9v5.13ZM250.27,129.13q-.08.1-.21.25c-1.08,1.34-1.81,2.03-2.97,2.8-.21-.52-.39-.79-.84-1.28.66-.36.95-.57,1.41-.99.69-.64,1.12-1.16,1.33-1.62l1.27.84ZM257.74,136.7c-.2.21-.27.28-.43.48-.56.6-1.02,1.02-1.68,1.53,1.12.39,2.1.56,3.38.63-.28.48-.43.87-.56,1.46-1.86-.29-2.93-.62-4.16-1.25-1.32.64-2.55,1.01-4.24,1.27-.13-.46-.29-.83-.62-1.3,1.5-.15,2.42-.35,3.54-.8-.48-.35-.7-.56-1.2-1.09-.49.39-.8.59-1.54.98-.22-.48-.42-.76-.81-1.12,1.3-.56,2.09-1.11,2.83-1.99-.66,0-.91.01-1.19.04.03-.32.06-.7.06-1.3v-1.79c0-.07,0-.08-.01-.34-.11.13-.18.21-.36.41-.42-.52-.64-.73-1.12-1.05.97-.83,1.88-2.19,2.14-3.22l1.55.41q-.13.18-.41.71h4.02c.81,0,1.29-.03,1.65-.08v1.43c-.35-.04-.95-.07-1.61-.07h-4.76c-.15.24-.21.32-.36.53h4.52c.73,0,.97-.01,1.33-.04-.04.28-.04.55-.04,1.33v1.75c0,.69,0,1.01.04,1.33-.32-.03-.59-.04-1.16-.04h-2.77c-.15.22-.18.27-.41.53h2.58c.49,0,.81-.01,1.04-.06l.78.73ZM252.48,132.8h3.75v-.57h-3.75v.57ZM252.48,134.4h3.75v-.57h-3.75v.57ZM252.93,137.1c.35.34.74.62,1.34.98.43-.28.74-.5,1.3-.98h-2.65Z"/>
        <path d="M271.64,136.78l.06-1.5h-.43c-.29,0-.43.01-.64.03v-1.27c.2.03.32.04.66.04h.46l.04-1.19h-.52c-.29,0-.43,0-.64.03v-1.27c.18.03.31.04.66.04h.55l.04-1.29h-.62c-.32,0-.46.01-.67.04v-1.34c.24.04.53.07.87.07h.91c.43,0,.62-.01.9-.06-.04.39-.06.7-.08,1.4l-.21,6.28c.42-.03.56-.04.81-.07v1.4c-.48-.06-.95-.08-1.6-.08h-9.19c-.57,0-1.08.03-1.58.08v-1.4c.27.03.48.06.92.07l-.15-5.76c-.01-.62-.04-1.01-.08-1.43,1.02-.25,1.82-.6,2.35-1.04l.53.81c0-.18,0-.27-.03-.52.25.04.66.06,1.18.06h3.01c.57,0,.92-.01,1.19-.06-.03.32-.04.55-.04,1.06v6.86h1.36ZM266.51,138.9c-1.53,1.13-2.42,1.55-4.19,2-.22-.45-.48-.83-.79-1.23.95-.17,1.44-.29,2.12-.57.77-.31,1.18-.55,1.75-1.04l1.11.84ZM264.98,129.92c-.52.25-.87.39-1.53.6l.03,1.18h.48c.34,0,.48-.01.66-.04v1.27c-.2-.01-.35-.03-.64-.03h-.46l.03,1.21h.42c.34,0,.46-.01.66-.04v1.27c-.17-.01-.35-.03-.64-.03h-.39l.03,1.47h1.37v-6.86ZM269.1,136.78v-6.7h-2.94v6.7h2.94ZM268.82,131.89c-.25-.03-.31-.03-.64-.03h-1.11c-.32,0-.38,0-.63.03v-1.13c.15.01.31.03.64.03h1.09c.34,0,.48-.01.64-.03v1.13ZM267.13,136.02c-.2,0-.41.01-.67.03.03-.22.03-.39.03-.71v-2.12c0-.34,0-.49-.03-.73.14.01.36.03.67.03h.99c.31,0,.57-.01.7-.03-.01.14-.03.39-.03.74v2.09c0,.34.01.57.03.73-.22-.01-.49-.03-.69-.03h-1.01ZM267.31,134.97h.66v-1.39h-.66v1.39ZM269.62,138.08c1.4.91,2.25,1.22,4.19,1.5-.35.49-.45.66-.71,1.27-.99-.22-1.48-.38-2.27-.71-.85-.36-1.36-.64-2.2-1.22l1-.84Z"/>
        <path d="M278.44,139.16c0,.81.01,1.26.08,1.64h-1.58c.06-.42.08-.83.08-1.67v-8.85c0-.71-.01-1.08-.06-1.53.36.04.73.06,1.37.06h2.42c.69,0,1.02-.01,1.39-.06-.03.39-.04.73-.04,1.26v1.91c0,.62,0,.92.03,1.21-.32-.01-.76-.03-1.23-.03h-2.46v6.07ZM278.44,130.49h2.35v-.67h-2.35v.67ZM278.44,132.06h2.35v-.66h-2.35v.66ZM283.42,137.44c.66.67,1.23.98,2.41,1.29-.15.25-.2.32-.31.57.57.07.66.08.97.08.34,0,.42-.07.42-.36v-5.92h-2.66c-.48,0-.9.01-1.23.03.03-.35.04-.62.04-1.21v-1.91c0-.52-.01-.84-.04-1.26.36.04.7.06,1.37.06h2.61c.66,0,1.02-.01,1.39-.06-.04.49-.06.87-.06,1.51v8.92c0,1.26-.31,1.51-1.9,1.51-.31,0-.46,0-.8-.03-.04-.49-.08-.71-.22-1.11-.07.18-.08.24-.15.45-1.02-.38-1.93-1-2.62-1.82-.6,1.08-1.46,1.7-3.05,2.21-.22-.5-.42-.8-.74-1.16.91-.24,1.32-.39,1.72-.66.48-.29.84-.7,1.04-1.15h-1.32c-.48,0-.83.01-1.16.07v-1.23c.29.04.57.06,1.08.06h1.67c.01-.32.03-.43.03-.81h-1.55c-.43,0-.69.01-.97.04v-1.16c.29.04.5.06.94.06h.45c-.21-.35-.29-.48-.64-.92l1.23-.32c.34.49.52.77.76,1.25h1.11c.27-.43.34-.6.6-1.23l1.3.25c-.2.39-.31.57-.57.98h.46c.45,0,.69-.01.98-.06v1.16c-.27-.03-.55-.04-.97-.04h-1.81c0,.28-.01.52-.04.81h1.96c.5,0,.78-.01,1.08-.06v1.22c-.35-.04-.59-.06-1.09-.06h-1.68ZM284.39,130.49h2.52v-.67h-2.52v.67ZM284.39,132.06h2.52v-.66h-2.52v.66Z"/>
        <path d="M291.57,133.54c.35.06.57.07,1.08.07h1c.39,0,.71-.01,1.04-.06-.04.39-.06.73-.06,1.46v2.89c.22.35.36.52.63.69.66.43,1.43.57,3.11.57,2.72,0,4.27-.07,5.76-.25-.25.71-.28.81-.41,1.58-1.12.04-3.1.07-4.68.07-2.31,0-3.08-.1-3.94-.5-.46-.22-.77-.48-1.18-.97-.66.6-.9.8-1.57,1.29-.17.13-.27.2-.39.29l-.66-1.53c.5-.21,1.21-.69,1.91-1.3v-2.91h-.73c-.36,0-.56.01-.91.07v-1.46ZM292.67,128.54c.92.8,1.43,1.32,2.34,2.42l-1.12,1.09c-.84-1.13-1.26-1.61-2.28-2.52l1.06-1ZM296.13,130.63c-.56,0-.85.01-1.09.06v-1.32c.39.06.81.07,1.51.07h2.04c-.01-.48-.03-.64-.1-1.02h1.51c-.06.35-.07.56-.08,1.02h2.23c.64,0,1.13-.03,1.53-.07v1.32c-.32-.04-.69-.06-1.34-.06h-2.41v.64h2.09c.49,0,.73-.01,1.12-.04-.04.32-.06.56-.06,1.02v2.79c0,.45.01.66.06.98-.39-.03-.67-.04-1.12-.04h-2.09v.63h2.46c.7,0,1.01-.01,1.34-.06v1.3c-.31-.04-.7-.06-1.34-.06h-2.46c0,.43.03.76.08,1.12h-1.51c.07-.41.08-.62.1-1.12h-2.13c-.48,0-1.01.01-1.33.04v-1.29c.28.04.6.06,1.33.06h2.13v-.63h-1.91c-.41,0-.76.01-1.12.04.04-.36.06-.56.06-1v-2.86c0-.41-.01-.56-.06-.94.35.03.64.04,1.11.04h1.92v-.64h-2.46ZM296.95,132.35v.76h1.65v-.76h-1.65ZM296.95,134.11v.78h1.65v-.78h-1.65ZM299.93,133.11h1.79v-.76h-1.79v.76ZM299.93,134.89h1.79v-.78h-1.79v.78Z"/>
        <path d="M313.51,128.56c.57.9,1.25,1.6,2.28,2.39,1.04.79,2.16,1.42,3.39,1.92-.31.43-.5.83-.74,1.49-1.15-.52-2.37-1.26-3.31-2.03-1.06-.85-1.62-1.43-2.37-2.41-.73.99-1.25,1.53-2.21,2.35-1.04.88-2.14,1.61-3.35,2.2-.24-.62-.39-.91-.76-1.43,1.16-.5,2.28-1.19,3.31-2.05.94-.76,1.62-1.53,2.2-2.44h1.55ZM313.8,138.98h3.35c.74,0,1.27-.03,1.7-.08v1.6c-.43-.06-.98-.08-1.7-.08h-8.74c-.76,0-1.3.03-1.74.08v-1.6c.36.06.87.08,1.6.08h.6v-3.22c0-.63-.01-1.05-.07-1.54h1.64c-.06.41-.08.87-.08,1.54v3.22h1.95v-5.48c0-.67-.01-1.04-.08-1.5h1.67c-.06.41-.08.78-.08,1.46v1.33h2.23c.63,0,1.09-.03,1.47-.07v1.57c-.42-.06-.83-.07-1.46-.07h-2.24v2.76Z"/>
        <path d="M323.61,133.83c-.63,0-.92.01-1.37.06v-1.27c.38.04.71.06,1.37.06h1.64c-.22-.5-.35-.74-.5-1.01h-1.44c-.64,0-1.18.03-1.6.07v-1.34c.42.06.84.08,1.53.08h.43c-.25-.46-.42-.69-.91-1.25l1.34-.5c.45.62.63.92,1.04,1.75h.76v-.94c0-.41-.03-.78-.07-1.05h1.46c-.03.25-.04.55-.04,1v.99h1v-.99c0-.42-.01-.71-.06-1h1.47c-.04.25-.07.63-.07,1.05v.94h.84c.46-.64.73-1.13.97-1.78l1.37.5c-.29.5-.55.9-.83,1.27h.38c.7,0,1.12-.03,1.53-.08v1.34c-.42-.04-.95-.07-1.6-.07h-1.36c-.22.5-.32.71-.49,1.01h1.55c.66,0,.99-.01,1.39-.06v1.27c-.43-.04-.74-.06-1.39-.06h-3.52v.64h2.83c.59,0,1.01-.01,1.37-.06v1.18c-.35-.04-.78-.06-1.37-.06h-2.83v.67h3.77c.76,0,1.23-.03,1.61-.08v1.34c-.49-.06-.98-.08-1.6-.08h-2.7c.45.39,1.06.74,1.82,1.08.85.35,1.58.56,2.8.77-.38.5-.55.8-.77,1.37-2.26-.62-3.78-1.43-4.97-2.67.03.48.03.64.03.95v.67c0,.57.03.98.08,1.36h-1.58c.06-.39.08-.83.08-1.37v-.64c0-.31,0-.42.03-.92-.62.66-1.11,1.04-1.93,1.48-.85.48-1.7.83-2.75,1.13-.2-.46-.46-.87-.81-1.3,1.95-.41,3.31-1,4.4-1.91h-2.49c-.66,0-1.13.03-1.64.08v-1.34c.42.06.88.08,1.62.08h3.56v-.67h-2.66c-.59,0-1.02.01-1.37.06v-1.18c.36.04.77.06,1.37.06h2.66v-.64h-3.38ZM328.9,132.66c.2-.36.32-.64.45-1.01h-3.07c.18.39.28.64.41,1.01h2.21Z"/>
      </g>
      <g>
        <path d="M67.14,123.71c.31,1.22.87,2.38,1.64,3.4.53.69,1.16,1.34,1.88,1.92.63.52,1.06.81,1.95,1.26-.42.52-.64.88-.95,1.51-2.75-1.77-4.45-3.8-5.42-6.44-.31,1.11-.78,2.07-1.47,3-1,1.36-2.07,2.3-3.89,3.39-.31-.59-.55-.95-.95-1.43,1.61-.78,2.73-1.67,3.61-2.89.8-1.08,1.32-2.33,1.57-3.73h-3.18c-.87,0-1.22.01-1.68.08v-1.6c.43.06.91.08,1.69.08h3.33c.01-.43.03-.66.03-1.34,0-.57-.03-1-.1-1.34h1.72c-.08.49-.1.69-.1,1.58,0,.34-.01.6-.04,1.11h3.68c.74,0,1.23-.03,1.69-.08v1.6c-.5-.06-.92-.08-1.68-.08h-3.33ZM66.41,131.31c-.71-1.26-1.04-1.74-1.79-2.62l1.25-.71c.66.71,1.29,1.55,1.92,2.51l-1.37.83Z"/>
        <path d="M75.63,121.18c0-.43-.01-.94-.06-1.42.22.03.52.04,1.08.04h1.49c.6,0,.9-.01,1.16-.06l.66.91q-.11.25-.49,1.15c-.22.55-.55,1.18-.85,1.69.7,1.11.91,1.71.91,2.68,0,.73-.17,1.09-.63,1.34-.32.18-.77.28-1.36.28-.04,0-.11,0-.18-.01-.03-.73-.07-.95-.27-1.36.22.06.41.07.6.07.48,0,.56-.1.56-.64,0-.73-.25-1.29-1.01-2.3.48-.79.87-1.68,1.11-2.48h-1.3v8.81c0,.8.03,1.46.07,1.83h-1.57c.06-.38.08-1.01.08-1.86v-8.68ZM83.52,127.6c-.38.7-.71,1.13-1.26,1.62-.73.66-1.42,1.09-2.68,1.67-.31-.43-.53-.66-.91-.94.9-.29,1.34-.52,2-.97.64-.46,1.04-.84,1.4-1.39h-.76c-.69.7-1.25,1.07-2.38,1.6-.24-.42-.48-.69-.84-.95,1.12-.43,1.82-.87,2.41-1.48.28-.31.42-.52.64-.97h-.53c-.48,0-.74.01-.94.06v-1.29c.34.04.8.07,1.37.07h4.95c.71,0,1.09-.01,1.43-.07v1.29c-.38-.04-.78-.06-1.43-.06h-3.49c-.18.41-.21.48-.35.71h3.74c.66,0,.91-.01,1.21-.04-.03.15-.07.66-.17,2.27-.15,2.61-.42,3.03-1.92,3.03-.27,0-.66-.01-1.06-.04-.04-.52-.14-.92-.31-1.25-.62.59-1.16.97-2.07,1.46-.27-.38-.55-.66-.94-.9,1.19-.57,1.79-1.02,2.52-1.79.48-.52.74-.92,1.05-1.64h-.69ZM81.46,124.07c-.49,0-.97.01-1.23.04.04-.38.06-.74.06-1.29v-1.83c0-.56-.01-.81-.06-1.22.41.06.73.07,1.36.07h3.42c.66,0,1.05-.01,1.44-.07-.04.38-.06.66-.06,1.33v1.72c0,.59.01.97.06,1.28-.42-.03-.6-.03-1.22-.03h-3.77ZM81.66,121.46h3.35v-.6h-3.35v.6ZM81.66,123.05h3.35v-.6h-3.35v.6ZM85.49,127.6c-.41,1.15-.85,1.85-1.76,2.79.53.08.69.1,1.11.11h.07c.41,0,.49-.13.6-.94.07-.52.14-1.33.14-1.96h-.15Z"/>
        <path d="M95.43,120.95c0-.52-.03-.95-.08-1.36h1.67c-.06.38-.08.78-.08,1.36v3.29h3.75c.56,0,1.05-.03,1.54-.08v1.51c-.41-.06-.87-.08-1.53-.08h-2.46v4.33c0,.36.1.39,1.22.39.9,0,1.22-.07,1.33-.29.14-.28.2-.74.24-1.96.6.32.8.39,1.43.55-.13,1.67-.32,2.33-.8,2.7-.35.29-.87.38-2.45.38-2.1,0-2.41-.17-2.41-1.28v-4.82h-1.53c-.03,1.16-.11,1.68-.36,2.48-.36,1.16-.94,1.99-1.88,2.7-.63.48-1.19.76-2.16,1.08-.31-.59-.5-.88-.91-1.34,1.37-.36,2.24-.88,2.88-1.7.42-.55.76-1.39.88-2.28.04-.28.06-.46.07-.94h-1.93c-.53,0-1.04.03-1.51.08v-1.51c.48.06.95.08,1.54.08h3.54v-3.29ZM92.28,120.17c.87,1.06,1.27,1.68,2,3.07l-1.32.77c-.73-1.47-1.11-2.07-1.99-3.18l1.3-.66ZM101.41,120.78c-.7,1.4-1.33,2.38-2.13,3.35l-1.29-.74c.84-.98,1.39-1.86,2-3.24l1.42.63Z"/>
        <path d="M110.11,122.68c0,.06-.03.13-.1.25-.15.25-.21.46-.39,1.26-.45,1.97-1.18,3.68-2.13,4.99-.41.56-.7.85-.87.85-.06,0-.11-.03-.21-.08-.46-.25-.85-.42-1.4-.55,1.29-1.12,2.27-2.91,2.79-5.07.17-.74.27-1.44.27-2.07v-.24c1.22.13,2.05.39,2.05.66ZM115.36,129.69c-.73-2.56-1.78-4.95-2.93-6.65-.17-.24-.18-.28-.18-.35,0-.11.13-.21.53-.45.42-.27.64-.36.77-.36.15,0,.2.06.73.88.63.98,1.25,2.23,1.98,4.03.49,1.2.78,2.11.78,2.37,0,.17-.07.22-.42.39-.34.17-.9.36-1.02.36-.11,0-.2-.08-.24-.22ZM117.45,121.14c0,.84-.66,1.5-1.5,1.5s-1.5-.66-1.5-1.5.66-1.5,1.5-1.5,1.5.66,1.5,1.5ZM115.2,121.14c0,.41.34.74.74.74s.74-.34.74-.74-.34-.74-.74-.74-.74.34-.74.74Z"/>
        <path d="M125.52,126.98c-.79.48-1.68.92-2.63,1.33-.63.27-1.02.41-1.12.41s-.17-.03-.25-.13c-.43-.49-.66-.69-1.13-.98,1.13-.34,2.3-.81,3.63-1.5,1.56-.78,2.45-1.44,3.99-2.9-4.22,0-4.86.01-5.62.13-.04.01-.07.01-.1.01-.11,0-.15-.06-.18-.22-.07-.42-.1-.81-.1-1.4.88.11,2.03.17,3.52.18v-.59c0-.45-.04-1.12-.1-1.51.77,0,1.29.04,1.67.13.2.04.29.13.29.27,0,.06-.01.1-.06.18-.08.18-.14.55-.14.97v.57c1.3,0,1.77-.04,2.07-.2.03-.01.06-.01.1-.01.18,0,.38.15.66.48.34.39.48.63.48.78,0,.14-.07.22-.25.35-.25.17-.48.36-1.08.91-.76.7-1.11.99-1.99,1.65v2.97c0,.43.03,1.43.04,1.74.01.22.01.36.01.42v.11c0,.08-.03.14-.08.17-.1.06-.55.1-.92.1h-.1c-.62-.01-.64-.03-.66-.2,0-.13,0-.14.03-.66.01-.42.03-1.13.03-1.96v-1.6ZM128.56,126.2c.32-.43.45-.56.56-.56s.31.08.78.31c.78.38,1.67.92,2.2,1.39.13.1.15.15.15.21,0,.14-.1.31-.49.85-.22.29-.35.41-.48.41-.07,0-.13-.03-.21-.1-.83-.7-1.93-1.43-2.65-1.72-.17-.06-.21-.1-.21-.18,0-.1.13-.34.34-.6Z"/>
        <path d="M139.63,121.16c.11.04.17.13.17.24,0,.06,0,.08-.03.2-.08.31-.1.53-.1,1.09-.03,3.42-.64,5.6-2.12,7.47-.32.39-.45.52-.59.52-.06,0-.13-.03-.24-.08-.38-.24-.73-.36-1.36-.5.97-.98,1.34-1.5,1.76-2.45.59-1.32.83-2.65.83-4.65,0-.92-.03-1.34-.14-2.04.78.01,1.43.1,1.81.22ZM141.13,122.51c0-.69-.04-1.23-.13-1.82,1.51.06,2.06.17,2.06.45,0,.08-.01.13-.07.28-.04.08-.08.31-.1.52q-.04.38-.07,6.54c1.78-1.01,2.94-1.97,4.12-3.46.03.73.08,1.26.21,1.68.04.13.04.17.04.24,0,.22-.14.41-.78,1.01-1.04.95-1.74,1.44-3.04,2.13-.31.15-.49.28-.66.43-.1.08-.22.14-.32.14-.17,0-.67-.34-1.04-.69-.28-.28-.41-.49-.41-.67,0-.07.01-.11.06-.24.1-.27.13-.52.13-1.29v-5.25Z"/>
        <path d="M155.79,128.45c-.67,1.16-1.6,1.81-2.55,1.81-1.46,0-2.49-1.43-2.49-3.42,0-2.21,1.12-4.12,3.04-5.13.94-.5,1.95-.73,3.28-.73,2.93,0,5.1,2.07,5.1,4.85,0,2.45-1.2,4.22-3.53,5.21-.46.2-.83.31-1.01.31-.17,0-.24-.06-.42-.32-.24-.36-.5-.63-.88-.88,2.89-.74,4.19-2.1,4.19-4.37,0-1.16-.49-2.14-1.36-2.76-.49-.34-.88-.48-1.65-.6-.39,2.96-.85,4.57-1.71,6.04ZM153.77,123.5c-.94.83-1.47,2-1.47,3.32,0,1.08.35,1.71.94,1.71.7,0,1.42-.97,1.95-2.63.34-1.05.5-1.85.71-3.4-.99.21-1.48.45-2.13,1.01Z"/>
        <path d="M68.08,142.65c.15-.42.22-.71.31-1.22,1.22.43,1.96.85,1.96,1.12,0,.07-.03.11-.13.22-.27.28-.48.6-.7,1.08-.7,1.44-1.08,2.13-1.74,3.15.63.52,1.26,1.13,1.74,1.65.13.14.18.24.18.35,0,.14-.17.39-.56.81-.29.32-.46.46-.59.46-.07,0-.14-.04-.25-.17-.84-.95-.92-1.05-1.54-1.67-1.19,1.5-2.55,2.77-3.87,3.64-.42.29-.67.41-.83.41-.14,0-.15,0-.5-.34-.24-.21-.59-.46-1.01-.7,1.93-.95,3.53-2.28,4.93-4.16-.66-.55-1-.78-2.19-1.55-.28-.17-.31-.2-.31-.29,0-.15.17-.39.62-.91.15-.18.27-.25.38-.25.18,0,1.12.63,2.45,1.62.73-1.18,1.23-2.18,1.64-3.26Z"/>
        <path d="M80.7,146.08c2.56,0,4.03-.03,5.45-.13h.18c.42,0,.42.01.42,1.13,0,.57-.04.67-.28.67h-.06c-.92-.04-1.44-.04-5.49-.04-1.48,0-2.23.01-3.52.06h-.41c-.45,0-.52.01-.78.06-.07,0-.13.01-.15.01-.15,0-.25-.07-.28-.2-.08-.35-.14-1.06-.14-1.71,1.13.11,2.13.14,5.06.14Z"/>
        <path d="M96.36,145.27c-.45,2.96-1.62,5.14-3.5,6.53-.53.39-.95.63-1.09.63-.1,0-.15-.04-.27-.17-.35-.39-.69-.69-1.15-.95,1.61-.74,2.66-1.7,3.39-3.05.48-.88.77-1.82.92-2.98-.29,0-.5.01-.66.01-1.25,0-1.86.03-2.42.14-.14.01-.2.03-.22.03-.15,0-.25-.07-.29-.22-.06-.2-.17-1.22-.18-1.57,1.08.13,1.78.15,3.45.15h.49c.03-.56.04-.9.04-1.34,0-.55-.01-.83-.07-1.18,1.62.07,2.04.17,2.04.42q0,.06-.08.25c-.1.25-.15.57-.2,1.23-.01.24-.03.36-.04.62h2.09q.63-.03.74-.04t.46-.18s.13-.03.18-.03c.22,0,.42.13.8.5s.53.6.53.78c0,.14,0,.15-.18.53-.04.08-.1.43-.11.71-.14,2.51-.42,4.36-.76,5.1-.22.5-.55.8-1.09.99-.36.14-.73.18-1.42.18-.92,0-1.05-.04-1.11-.36-.07-.45-.18-.77-.45-1.34.59.11.94.14,1.4.14.81,0,1.05-.11,1.23-.59.32-.87.58-2.93.6-4.96h-3.08Z"/>
        <path d="M110.81,146.08c2.56,0,4.03-.03,5.45-.13h.18c.42,0,.42.01.42,1.13,0,.57-.04.67-.28.67h-.06c-.92-.04-1.44-.04-5.49-.04-1.48,0-2.23.01-3.52.06h-.41c-.45,0-.52.01-.78.06-.07,0-.13.01-.15.01-.15,0-.25-.07-.28-.2-.08-.35-.14-1.06-.14-1.71,1.13.11,2.13.14,5.06.14Z"/>
      </g>
      <g>
        <path d="M15.48,26.59c2.37,0,4.34-.04,5.28-.12.14-.01.23-.01.29-.01.08,0,.12.01.16.03.09.05.12.27.12.99,0,.66-.03.73-.25.73t-.22-.01c-.69-.06-1.48-.08-3.16-.08-3.59,0-5.29.04-6.08.16-.13.03-.18.03-.23.03-.3,0-.35-.23-.46-1.79,1.05.07,2.33.09,4.56.09ZM15.88,21c1.74,0,2.74-.04,3.48-.13.08-.01.09-.01.14-.01.14,0,.19.04.22.22.01.1.03.56.03.92,0,.44-.04.55-.21.55-.05,0-.12,0-.22-.01-.26-.01-2.16-.03-3.67-.03-1,0-1.68.01-2.39.07-.17.01-.38.03-.4.03-.16,0-.25-.07-.3-.2-.07-.18-.13-.95-.13-1.56.79.12,1.62.16,3.44.16Z"/>
        <path d="M16.09,36.24c-.47,0-.78.03-1.07.07-.04.01-.07.01-.09.01-.12,0-.2-.06-.22-.21-.06-.29-.1-.7-.1-1.27.44.09,1.23.13,2.67.13,1.18,0,1.3-.01,1.53-.12.05-.01.1-.03.14-.03.22,0,.43.12.74.39.27.25.46.51.46.64,0,.05-.03.12-.1.22q-.16.21-.36,1.44c-.16,1.03-.23,1.44-.33,1.87t-.01.08c1.16,0,1.38-.01,1.94-.05h.08c.18,0,.22.13.22.81,0,.53-.03.61-.19.61-.07,0-.09,0-.62-.03-.43-.03-1.82-.04-3.06-.04-2.01,0-3.52.04-4.07.1h-.12c-.18,0-.26-.04-.31-.14-.05-.16-.1-.53-.16-1.34.91.08,1.27.09,4.84.09.03-.1.03-.12.04-.22.17-.82.33-1.91.44-3.02h-2.28Z"/>
        <path d="M16.99,46.06c.13.03.2.09.2.19,0,.05-.03.17-.07.3-.13.46-.18,2.03-.18,4.99,0,1.34.04,4.02.06,4.45v.06c0,.12-.03.21-.09.25-.08.08-.64.14-1.1.14-.42,0-.49-.05-.49-.29v-.07c.03-.62.08-4.09.08-5.66,0-2.99-.03-3.77-.16-4.56.96.05,1.38.1,1.75.18Z"/>
        <path d="M19.87,66.96c.83.75,1.34,1.3,1.34,1.44,0,.12-.17.32-.57.71-.3.29-.43.38-.52.38-.05,0-.12-.03-.19-.09q-.14-.17-.74-.85c-.71-.81-1.69-1.66-2.82-2.47-.86.9-2.02,1.87-2.95,2.51-.74.51-1.44.9-1.6.9-.13,0-.14-.01-.46-.36-.18-.21-.48-.47-.81-.7,1.5-.69,2.6-1.43,3.83-2.56,1.34-1.22,2.22-2.35,3.26-4.15q-4.39.03-5.11.1c-.16.01-.18.01-.21.01-.14,0-.22-.07-.25-.21-.06-.42-.09-.81-.09-1.5.88.12,2.26.17,4.15.17.77,0,1.57-.03,2-.08.17-.01.19-.03.47-.12.05-.03.08-.03.16-.03.22,0,.46.18.77.6.25.35.39.62.39.77,0,.16-.04.21-.38.52-.21.21-.3.31-.7.97-.39.65-.99,1.47-1.48,2.07,1.01.68,1.7,1.2,2.51,1.95Z"/>
      </g>
      <g>
        <path d="M18.65,114.1h1.85c.58,0,.95-.03,1.34-.08v1.42c-.42-.04-.81-.06-1.35-.06h-1.4c.74,1.3,1.82,2.38,3.11,3.11-.42.42-.6.68-.86,1.3-.53-.38-.91-.74-1.4-1.3-.64-.74-.91-1.14-1.33-1.92.03.47.04.87.04,1.25v1.57c0,.59.03,1.04.08,1.44h-1.44c.05-.4.08-.87.08-1.46v-1.48c0-.35.01-.77.04-1.29-.79,1.43-1.68,2.39-2.94,3.24-.33-.61-.51-.87-.78-1.18,1.34-.77,2.43-1.88,3.19-3.28h-.82c-.56,0-.96.03-1.37.08v-.52c-.22.31-.38.6-.53,1.05-.33-.51-.52-.91-.77-1.56.03.4.05,1.11.05,1.65v3.2c0,.66.03,1.14.08,1.53h-1.44c.05-.4.08-.88.08-1.53v-2.69c0-.49.01-.81.09-1.61-.38,1.26-.75,2.11-1.31,2.95-.16-.59-.33-.96-.58-1.39.62-.79,1.27-2.26,1.66-3.77h-.49c-.38,0-.6.01-.83.05v-1.33c.21.04.44.05.83.05h.62v-1c0-.66-.01-.99-.06-1.3h1.43c-.05.34-.07.69-.07,1.3v1h.38c.31,0,.47-.01.68-.05v1.23c.49-.88.91-2.18.95-3.03l1.26.33c-.05.14-.09.3-.18.69-.06.23-.09.35-.16.6h1v-.86c0-.53-.03-.86-.08-1.18h1.46c-.05.31-.08.66-.08,1.18v.86h1.47c.62,0,.99-.03,1.34-.08v1.36c-.36-.04-.78-.06-1.34-.06h-1.47v1.57ZM15.93,112.53c-.22.53-.34.78-.7,1.39q-.31-.32-1.01-.82c.1-.14.14-.21.21-.3-.17-.03-.38-.04-.61-.04h-.33c.3.69.61,1.21,1.18,1.98v-.71c.39.05.75.08,1.35.08h1.33v-1.57h-1.42Z"/>
        <path d="M11.45,128.96c0-.49.01-.86.03-1.37-.22.44-.49.86-.82,1.29-.17-.61-.3-.96-.55-1.5.79-.87,1.38-1.87,1.87-3.24.27-.75.39-1.17.47-1.72l1.34.55c-.09.27-.13.38-.23.69q-.25.77-.81,2.05v6.97c0,.69.01,1.07.05,1.44h-1.43c.06-.49.08-.86.08-1.46v-3.72ZM20.5,126.19c.47,0,.85-.01,1.13-.05-.04.33-.05.66-.05,1.17v5.19c0,.62.03,1.05.08,1.56h-1.43v-.69h-5.29v.68h-1.38c.04-.42.07-.91.07-1.37v-5.34c0-.44-.03-.86-.05-1.2.35.04.62.05,1.13.05h1.18v-1.68h-.62c-.6,0-1.07.03-1.47.06v-1.39c.36.05.79.08,1.47.08h5.23c.69,0,1.14-.03,1.52-.08v1.39c-.36-.04-.88-.06-1.48-.06h-1.29v1.68h1.26ZM14.88,127.39v4.77h1v-4.77h-1ZM18.04,124.51h-.96v1.68h.96v-1.68ZM17.08,132.16h.96v-4.77h-.96v4.77ZM19.24,132.16h1.04v-4.77h-1.04v4.77Z"/>
        <path d="M19.84,139.75v7.01c0,2.04-1.4,3.29-3.69,3.29-1.14,0-2.16-.35-2.79-.97-.57-.57-.86-1.34-.86-2.31v-7.01h1.7v6.61c0,.73.12,1.25.36,1.56.31.39.94.65,1.6.65s1.29-.25,1.6-.66c.26-.35.39-.85.39-1.55v-6.61h1.69Z"/>
        <path d="M16.49,153.08c2.31,0,3.42.94,3.42,2.93,0,.87-.34,1.68-.91,2.18-.6.53-1.43.79-2.51.79h-1.87v4.22h-1.68v-10.13h3.55ZM16.08,157.6c1.47,0,2.13-.49,2.13-1.6s-.62-1.54-2.13-1.54h-1.47v3.13h1.47Z"/>
      </g>
      <rect class="cls-1" y="92.08" width="32.34" height="89.06"/>
      <g>
        <path d="M18.65,109.06h1.85c.58,0,.95-.03,1.34-.08v1.42c-.42-.04-.81-.07-1.35-.07h-1.4c.74,1.3,1.82,2.38,3.11,3.11-.42.42-.6.68-.86,1.3-.53-.38-.91-.74-1.4-1.3-.64-.74-.91-1.14-1.33-1.92.03.47.04.87.04,1.25v1.57c0,.58.03,1.04.08,1.44h-1.44c.05-.4.08-.87.08-1.46v-1.48c0-.35.01-.77.04-1.29-.79,1.43-1.68,2.39-2.94,3.24-.33-.61-.51-.87-.78-1.18,1.34-.77,2.43-1.88,3.19-3.28h-.82c-.56,0-.96.03-1.37.08v-.52c-.22.31-.38.6-.53,1.05-.33-.51-.52-.91-.77-1.56.03.4.05,1.1.05,1.65v3.2c0,.66.03,1.14.08,1.53h-1.44c.05-.4.08-.88.08-1.53v-2.69c0-.49.01-.81.09-1.61-.38,1.26-.75,2.11-1.31,2.95-.16-.58-.33-.96-.58-1.39.62-.79,1.27-2.26,1.66-3.77h-.49c-.38,0-.6.01-.83.05v-1.33c.21.04.44.05.83.05h.62v-1c0-.66-.01-.99-.06-1.3h1.43c-.05.34-.07.69-.07,1.3v1h.38c.31,0,.47-.01.68-.05v1.24c.49-.88.91-2.18.95-3.03l1.26.33c-.05.14-.09.3-.18.69-.06.23-.09.35-.16.6h1v-.86c0-.53-.03-.86-.08-1.18h1.46c-.05.31-.08.66-.08,1.18v.86h1.47c.62,0,.99-.03,1.34-.08v1.36c-.36-.04-.78-.06-1.34-.06h-1.47v1.57ZM15.93,107.49c-.22.53-.34.78-.7,1.39q-.31-.32-1.01-.82c.1-.14.14-.21.21-.3-.17-.03-.38-.04-.61-.04h-.33c.3.69.61,1.21,1.18,1.98v-.71c.39.05.75.08,1.35.08h1.33v-1.57h-1.42Z"/>
        <path d="M11.45,123.92c0-.49.01-.86.03-1.37-.22.44-.49.86-.82,1.29-.17-.61-.3-.96-.55-1.5.79-.87,1.38-1.87,1.87-3.24.27-.75.39-1.17.47-1.72l1.34.55c-.09.27-.13.38-.23.69q-.25.77-.81,2.05v6.97c0,.69.01,1.07.05,1.44h-1.43c.06-.49.08-.86.08-1.46v-3.72ZM20.5,121.15c.47,0,.85-.01,1.13-.05-.04.33-.05.66-.05,1.17v5.19c0,.62.03,1.05.08,1.56h-1.43v-.69h-5.29v.68h-1.38c.04-.42.07-.91.07-1.37v-5.34c0-.44-.03-.86-.05-1.2.35.04.62.05,1.13.05h1.18v-1.68h-.62c-.6,0-1.07.03-1.47.06v-1.39c.36.05.79.08,1.47.08h5.23c.69,0,1.14-.03,1.52-.08v1.39c-.36-.04-.88-.06-1.48-.06h-1.29v1.68h1.26ZM14.88,122.35v4.77h1v-4.77h-1ZM18.04,119.48h-.96v1.68h.96v-1.68ZM17.08,127.12h.96v-4.77h-.96v4.77ZM19.24,127.12h1.04v-4.77h-1.04v4.77Z"/>
        <path d="M15.39,132.17c1.08,0,1.9-.01,3.5-.05.57-.03.77-.04.95-.09.13-.04.17-.04.22-.04.25,0,.48.2.86.7.33.43.46.69.46.88,0,.14-.06.23-.21.33-.21.13-.25.17-.51.52-.47.65-1.04,1.26-1.87,2.03-.34.31-.46.39-.58.39-.09,0-.16-.03-.22-.1-.31-.36-.6-.58-1.07-.83,1-.61,1.68-1.26,2.47-2.39q-6.7.05-7.46.18c-.1.03-.14.03-.17.03-.2,0-.31-.12-.38-.38-.09-.35-.14-.77-.17-1.33.65.12,1.75.16,4.19.16ZM16.44,134.65c.26.07.36.14.36.27q0,.05-.08.22c-.07.17-.13.46-.2.9-.26,1.77-.66,2.94-1.34,3.89-.55.75-1.4,1.5-2.16,1.86-.09.05-.2.08-.25.08-.12,0-.2-.04-.29-.16-.26-.31-.57-.55-1.01-.81.74-.35,1.16-.61,1.61-1,1.25-1.08,1.87-2.67,1.87-4.76,0-.3,0-.48-.03-.71.62.04,1.07.1,1.5.22Z"/>
        <path d="M14.46,149.64c-.21-.48-.64-1.3-.81-1.55-.26-.38-.3-.44-.3-.52,0-.1.14-.22.49-.43.38-.22.46-.26.53-.25.12.01.29.21.6.7.43.65.82,1.39.82,1.55,0,.09-.09.18-.35.34-.3.18-.71.38-.79.38s-.13-.05-.2-.22ZM21.54,147.44c0,.05-.03.1-.08.17-.13.17-.21.3-.38.66-.94,2.07-1.55,3.04-2.59,4.08-.77.77-1.98,1.66-2.25,1.66-.08,0-.14-.03-.22-.1-.23-.23-.6-.51-1.01-.75,1.95-1.03,3.06-2.09,3.97-3.77.51-.97.84-1.98.9-2.74,1.08.31,1.66.6,1.66.79ZM18.2,148.57c0,.09-.6.46-.96.6-.08.03-.13.04-.13.05-.04.01-.07.03-.08.03-.07,0-.13-.07-.17-.2-.18-.55-.55-1.31-.95-1.96t-.04-.14c0-.08.1-.16.49-.36.48-.26.51-.27.58-.27.07,0,.09.03.18.12.18.25.74,1.24.85,1.52.08.22.13.36.17.43.04.04.05.06.05.08v.08s0,.04,0,.04Z"/>
        <path d="M15.61,160.61c-2.33.01-3.96.09-4.38.21-.01.01-.03.01-.04.01-.25,0-.33-.43-.36-1.77.64.09,1.47.13,3.39.13,1.74,0,3.78-.04,4.11-.08.23-.03.31-.04.55-.13.07-.03.09-.03.14-.03.22,0,.49.21.91.7.25.31.3.39.3.53,0,.09-.04.17-.13.29-.13.16-.14.2-.43,1.11-.73,2.29-2.17,4.34-4.12,5.85-.78.6-1.52,1.05-1.72,1.05-.14,0-.17-.01-.47-.31-.35-.35-.62-.56-.98-.74,1.91-.96,2.95-1.76,3.95-3.03.9-1.13,1.46-2.35,1.75-3.81q-1.01.01-2.48.01ZM22.6,158.24c0,.78-.61,1.39-1.39,1.39s-1.39-.61-1.39-1.39.61-1.39,1.39-1.39,1.39.61,1.39,1.39ZM20.52,158.24c0,.38.31.69.69.69s.69-.31.69-.69-.31-.69-.69-.69-.69.31-.69.69Z"/>
      </g>
      <rect class="cls-2" x="35.31" y="184.17" width="152.54" height="89.06"/>
      <rect class="cls-3" x="191.21" y="184.17" width="152.54" height="89.06"/>
      <rect class="cls-1" y="184.17" width="32.34" height="89.06"/>
      <g>
        <path d="M18.65,206.18h1.85c.58,0,.95-.03,1.34-.08v1.42c-.42-.04-.81-.07-1.35-.07h-1.4c.74,1.3,1.82,2.38,3.11,3.11-.42.42-.6.68-.86,1.3-.53-.38-.91-.74-1.4-1.3-.64-.74-.91-1.14-1.33-1.92.03.47.04.87.04,1.25v1.57c0,.58.03,1.04.08,1.44h-1.44c.05-.4.08-.87.08-1.46v-1.48c0-.35.01-.77.04-1.29-.79,1.43-1.68,2.39-2.94,3.24-.33-.61-.51-.87-.78-1.18,1.34-.77,2.43-1.88,3.19-3.28h-.82c-.56,0-.96.03-1.37.08v-.52c-.22.31-.38.6-.53,1.05-.33-.51-.52-.91-.77-1.56.03.4.05,1.1.05,1.65v3.2c0,.66.03,1.14.08,1.53h-1.44c.05-.4.08-.88.08-1.53v-2.69c0-.49.01-.81.09-1.61-.38,1.26-.75,2.11-1.31,2.95-.16-.58-.33-.96-.58-1.39.62-.79,1.27-2.26,1.66-3.77h-.49c-.38,0-.6.01-.83.05v-1.33c.21.04.44.05.83.05h.62v-1c0-.66-.01-.99-.06-1.3h1.43c-.05.34-.07.69-.07,1.3v1h.38c.31,0,.47-.01.68-.05v1.24c.49-.88.91-2.18.95-3.03l1.26.33c-.05.14-.09.3-.18.69-.06.23-.09.35-.16.6h1v-.86c0-.53-.03-.86-.08-1.18h1.46c-.05.31-.08.66-.08,1.18v.86h1.47c.62,0,.99-.03,1.34-.08v1.36c-.36-.04-.78-.06-1.34-.06h-1.47v1.57ZM15.93,204.61c-.22.53-.34.78-.7,1.39q-.31-.32-1.01-.82c.1-.14.14-.21.21-.3-.17-.03-.38-.04-.61-.04h-.33c.3.69.61,1.21,1.18,1.98v-.71c.39.05.75.08,1.35.08h1.33v-1.57h-1.42Z"/>
        <path d="M11.45,221.04c0-.49.01-.86.03-1.37-.22.44-.49.86-.82,1.29-.17-.61-.3-.96-.55-1.5.79-.87,1.38-1.87,1.87-3.24.27-.75.39-1.17.47-1.72l1.34.55c-.09.27-.13.38-.23.69q-.25.77-.81,2.05v6.97c0,.69.01,1.07.05,1.44h-1.43c.06-.49.08-.86.08-1.46v-3.72ZM20.5,218.27c.47,0,.85-.01,1.13-.05-.04.33-.05.66-.05,1.17v5.19c0,.62.03,1.05.08,1.56h-1.43v-.69h-5.29v.68h-1.38c.04-.42.07-.91.07-1.37v-5.34c0-.44-.03-.86-.05-1.2.35.04.62.05,1.13.05h1.18v-1.68h-.62c-.6,0-1.07.03-1.47.06v-1.39c.36.05.79.08,1.47.08h5.23c.69,0,1.14-.03,1.52-.08v1.39c-.36-.04-.88-.06-1.48-.06h-1.29v1.68h1.26ZM14.88,219.47v4.77h1v-4.77h-1ZM18.04,216.6h-.96v1.68h.96v-1.68ZM17.08,224.24h.96v-4.77h-.96v4.77ZM19.24,224.24h1.04v-4.77h-1.04v4.77Z"/>
        <path d="M19.84,231.83v7.01c0,2.04-1.4,3.29-3.69,3.29-1.14,0-2.16-.35-2.79-.97-.57-.57-.86-1.34-.86-2.31v-7.01h1.7v6.6c0,.73.12,1.25.36,1.56.31.39.94.65,1.6.65s1.29-.25,1.6-.66c.26-.35.39-.84.39-1.55v-6.6h1.69Z"/>
        <path d="M16.49,245.16c2.31,0,3.42.94,3.42,2.92,0,.87-.34,1.68-.91,2.18-.6.53-1.43.79-2.51.79h-1.87v4.23h-1.68v-10.13h3.55ZM16.08,249.68c1.47,0,2.13-.49,2.13-1.6s-.62-1.53-2.13-1.53h-1.47v3.13h1.47Z"/>
      </g>
      <rect class="cls-1" y="184.17" width="32.34" height="89.06"/>
      <g>
        <path d="M18.65,201.15h1.85c.58,0,.95-.03,1.34-.08v1.42c-.42-.04-.81-.07-1.35-.07h-1.4c.74,1.3,1.82,2.38,3.11,3.11-.42.42-.6.68-.86,1.3-.53-.38-.91-.74-1.4-1.3-.64-.74-.91-1.14-1.33-1.92.03.47.04.87.04,1.25v1.57c0,.58.03,1.04.08,1.44h-1.44c.05-.4.08-.87.08-1.46v-1.48c0-.35.01-.77.04-1.29-.79,1.43-1.68,2.39-2.94,3.24-.33-.61-.51-.87-.78-1.18,1.34-.77,2.43-1.88,3.19-3.28h-.82c-.56,0-.96.03-1.37.08v-.52c-.22.31-.38.6-.53,1.05-.33-.51-.52-.91-.77-1.56.03.4.05,1.1.05,1.65v3.2c0,.66.03,1.14.08,1.53h-1.44c.05-.4.08-.88.08-1.53v-2.69c0-.49.01-.81.09-1.61-.38,1.26-.75,2.11-1.31,2.95-.16-.58-.33-.96-.58-1.39.62-.79,1.27-2.26,1.66-3.77h-.49c-.38,0-.6.01-.83.05v-1.33c.21.04.44.05.83.05h.62v-1c0-.66-.01-.99-.06-1.3h1.43c-.05.34-.07.69-.07,1.3v1h.38c.31,0,.47-.01.68-.05v1.24c.49-.88.91-2.18.95-3.03l1.26.33c-.05.14-.09.3-.18.69-.06.23-.09.35-.16.6h1v-.86c0-.53-.03-.86-.08-1.18h1.46c-.05.31-.08.66-.08,1.18v.86h1.47c.62,0,.99-.03,1.34-.08v1.36c-.36-.04-.78-.06-1.34-.06h-1.47v1.57ZM15.93,199.57c-.22.53-.34.78-.7,1.39q-.31-.32-1.01-.82c.1-.14.14-.21.21-.3-.17-.03-.38-.04-.61-.04h-.33c.3.69.61,1.21,1.18,1.98v-.71c.39.05.75.08,1.35.08h1.33v-1.57h-1.42Z"/>
        <path d="M11.45,216.01c0-.49.01-.86.03-1.37-.22.44-.49.86-.82,1.29-.17-.61-.3-.96-.55-1.5.79-.87,1.38-1.87,1.87-3.24.27-.75.39-1.17.47-1.72l1.34.55c-.09.27-.13.38-.23.69q-.25.77-.81,2.05v6.97c0,.69.01,1.07.05,1.44h-1.43c.06-.49.08-.86.08-1.46v-3.72ZM20.5,213.24c.47,0,.85-.01,1.13-.05-.04.33-.05.66-.05,1.17v5.19c0,.62.03,1.05.08,1.56h-1.43v-.69h-5.29v.68h-1.38c.04-.42.07-.91.07-1.37v-5.34c0-.44-.03-.86-.05-1.2.35.04.62.05,1.13.05h1.18v-1.68h-.62c-.6,0-1.07.03-1.47.06v-1.39c.36.05.79.08,1.47.08h5.23c.69,0,1.14-.03,1.52-.08v1.39c-.36-.04-.88-.06-1.48-.06h-1.29v1.68h1.26ZM14.88,214.43v4.77h1v-4.77h-1ZM18.04,211.56h-.96v1.68h.96v-1.68ZM17.08,219.2h.96v-4.77h-.96v4.77ZM19.24,219.2h1.04v-4.77h-1.04v4.77Z"/>
        <path d="M12.61,228.63c-.39.31-.6.44-.7.44s-.12,0-.36-.26c-.23-.23-.56-.47-.92-.66,1.39-.84,2.22-1.6,3.03-2.73.55-.77.95-1.52,1.16-2.24,1.38.52,1.7.68,1.7.86,0,.08-.04.12-.17.21-.13.09-.3.33-.65.86h.23c.46.01.78.01.86.01,1.26,0,1.59-.03,1.99-.18.1-.04.14-.05.22-.05.18,0,.36.14.77.62.33.36.42.52.42.66,0,.12-.04.18-.18.32-.1.1-.26.35-.46.73-1.22,2.22-2.13,3.45-3.6,4.77-1.16,1.05-2.99,2.29-3.39,2.29-.12,0-.22-.05-.33-.16-.39-.38-.71-.61-1.09-.77,1.79-.87,3.19-1.83,4.42-3.08q-.09-.09-.38-.39c-.27-.29-.57-.53-1.24-1.03-.08-.06-.1-.1-.1-.16,0-.07.17-.26.62-.73.22-.22.27-.26.35-.26.21,0,.98.62,1.76,1.42.78-1.01,1.34-1.98,1.65-2.81q-1.48.03-3.38.04c-.6.78-1.35,1.55-2.22,2.26ZM21.16,225.29c-.29.25-.46.36-.53.36s-.08,0-.31-.39c-.21-.35-.52-.75-.82-1.05-.05-.05-.06-.08-.06-.12,0-.1.49-.47.64-.47.1,0,.26.13.65.57.35.4.6.75.6.84s-.04.14-.16.25ZM21.74,224.63c-.31-.53-.61-.91-.96-1.23-.05-.05-.06-.08-.06-.1,0-.06.06-.13.29-.29.17-.13.25-.16.34-.16.14.01.48.34.92.9.18.23.3.43.3.49,0,.08-.04.13-.2.25-.21.16-.4.27-.48.27-.05,0-.09-.03-.14-.13Z"/>
        <path d="M15.28,238.21c0-.72-.03-1.09-.09-1.65.91.03,1.44.08,1.77.17.1.03.17.1.17.2,0,.06-.03.13-.08.22-.12.2-.14.43-.14,1.04v.42h1.66c.4,0,.66-.04.92-.13.16-.05.23-.08.33-.08.23,0,.61.27,1.04.74.22.25.3.36.3.49,0,.09-.03.18-.1.34-.12.22-.16.33-.31,1-.29,1.18-.53,1.81-1.07,2.7-.86,1.48-2.09,2.63-3.63,3.39-.38.18-.61.27-.7.27s-.14-.04-.25-.17c-.22-.29-.53-.55-1.03-.86,1.04-.44,1.59-.73,2.2-1.16,1.3-.91,2.11-1.99,2.63-3.48.22-.66.33-1.12.38-1.7-1.18-.03-1.66-.03-2.7-.03-1.11,0-1.83,0-3.45.03q-.01.81-.01.94c0,.33,0,.6.01,1.09v.06c0,.12-.04.17-.14.21-.13.03-.55.07-.87.07-.49,0-.58-.04-.58-.25,0-.07,0-.17.01-.33s.04-1.55.04-1.86c0-.42-.01-.79-.05-1.38.36.05,1.09.08,1.92.08h1.83v-.39Z"/>
        <path d="M21.13,253.52c.06.13.09.22.09.3,0,.13-.05.22-.22.46-.71.94-1.48,1.69-2.64,2.59-1.3,1.01-2.41,1.69-3.96,2.43-1,.47-1.05.49-1.21.64-.1.1-.16.13-.23.13-.12,0-.22-.1-.42-.39-.26-.39-.51-.92-.65-1.38,1.31-.3,2.89-1,4.41-1.96,2-1.26,3.26-2.51,4.24-4.21.14.48.26.74.6,1.4ZM12.48,251.34c.22-.25.31-.31.43-.31.25.01,1.22.64,2.03,1.29.49.4.65.57.65.7,0,.09-.23.44-.55.79-.29.33-.43.44-.53.44q-.09,0-.62-.51c-.34-.33-1.01-.87-1.35-1.08q-.46-.3-.55-.35c-.05-.04-.08-.08-.08-.12,0-.12.25-.48.57-.86Z"/>
      </g>
      <g>
        <path d="M83.74,223.57q-1.21.01-1.34.03s-.13.01-.25.03c-.06.01-.13.01-.22.03v-1.55c.43.06.97.08,1.81.08h8.22c.81,0,1.27-.03,1.76-.08v1.55c-.53-.06-.99-.08-1.75-.08h-4.69c-.34,1.18-.64,1.92-1.23,2.91h5.39c.55,0,.94-.02,1.37-.07-.03.41-.06,1.02-.06,1.39v4.34c0,.52.03,1.11.08,1.55h-1.6v-.76h-5.48v.74h-1.6c.07-.48.1-.98.1-1.54v-2.79s.01-.2.03-.48c-.57.73-1.21,1.36-2.06,2.03-.21-.55-.5-1.01-.91-1.46,1.34-.88,2.28-1.82,3.14-3.17.57-.88.81-1.41,1.22-2.72h-1.93ZM85.75,231.59h5.49v-3.77h-5.49v3.77Z"/>
        <path d="M97.38,224.96c.98.57,1.42.88,2.41,1.7l-.83,1.23c-.91-.86-1.39-1.22-2.42-1.84l.84-1.09ZM99.74,229.61c-.57,1.74-.9,2.52-1.62,3.88-.11.22-.13.24-.21.42l-1.32-1.12c.11-.11.29-.34.45-.59.56-.88.99-1.89,1.47-3.45l1.23.85ZM97.95,221.63c1.01.6,1.27.8,2.31,1.72l-.91,1.18c-.95-.95-1.19-1.13-2.3-1.86l.9-1.04ZM107.13,223.86c.58,0,1-.03,1.42-.07-.06.48-.07.91-.07,1.51v6.78c0,.66.01,1.02.08,1.72h-1.5v-.71h-5.28v.7h-1.5c.04-.39.07-1.05.07-1.58v-6.98c0-.6-.01-1.05-.06-1.43.35.04.71.06,1.32.06h2v-1.02c0-.59-.03-.99-.1-1.37h1.64c-.07.42-.1.77-.1,1.43v.97h2.07ZM101.78,225.22v2.45h1.83v-2.45h-1.83ZM101.78,229v2.72h1.83v-2.72h-1.83ZM105.06,227.67h2v-2.45h-2v2.45ZM105.06,231.72h2v-2.72h-2v2.72Z"/>
        <path d="M114.49,225.91c-.9.56-1.21.73-2.16,1.16-.24-.55-.45-.91-.78-1.39,1.43-.56,2.37-1.08,3.38-1.86.9-.69,1.57-1.41,2.13-2.27h1.58c.71.99,1.26,1.53,2.28,2.24,1.13.81,2.24,1.39,3.46,1.82-.38.57-.56.95-.76,1.51-.84-.37-1.36-.64-2.28-1.23v1.05c-.36-.04-.7-.05-1.21-.05h-4.5c-.38,0-.78.01-1.15.05v-1.04ZM113.75,229.37c-.7,0-1.15.03-1.58.08v-1.55c.42.04.95.07,1.58.07h8.36c.67,0,1.13-.03,1.58-.07v1.55c-.45-.06-.9-.08-1.58-.08h-4.61c-.45,1.02-.87,1.81-1.4,2.61q2.33-.13,4.26-.34c-.43-.48-.67-.73-1.42-1.48l1.33-.59c1.44,1.46,2.03,2.14,3.11,3.57l-1.3.86c-.38-.57-.49-.74-.8-1.16-1.12.14-1.92.24-2.42.28-1.4.14-3.95.38-4.52.42-.76.04-1.43.11-1.74.18l-.21-1.64c.41.03.57.04.76.04.11,0,.52-.01,1.2-.06.66-1.01,1.08-1.81,1.43-2.69h-2.03ZM120.12,225.49c.18,0,.31,0,.59-.01-1.22-.81-2-1.54-2.82-2.62-.7.95-1.51,1.72-2.79,2.62.22.01.34.01.55.01h4.47Z"/>
        <path d="M130.23,232.55c0,.63.01.98.08,1.37h-1.62c.06-.41.08-.77.08-1.4v-3.38c-.55.49-.83.7-1.5,1.15-.17-.52-.41-1.01-.69-1.4.94-.54,1.58-1.05,2.31-1.82.63-.66,1.02-1.22,1.46-2.07h-2.19c-.48,0-.8.02-1.12.06v-1.5c.35.04.62.05,1.05.05h.69v-1.12c0-.37-.03-.71-.08-1.02h1.61c-.06.29-.07.62-.07,1.04v1.11h.56c.41,0,.56-.01.77-.04l.64.7c-.11.18-.2.35-.29.57-.45.98-.69,1.39-1.34,2.3.63.71,1.25,1.21,2.13,1.7-.31.43-.5.8-.73,1.33-.71-.45-1.13-.83-1.75-1.51v3.89ZM135.95,231.9h1.61c.67,0,1.13-.03,1.54-.07v1.61c-.48-.06-.99-.08-1.54-.08h-4.59c-.56,0-1.05.03-1.51.08v-1.61c.42.04.9.07,1.53.07h1.47v-5.25h-1.01c-.45,0-.9.03-1.32.07v-1.53c.38.06.76.07,1.32.07h1.01v-2.37c0-.56-.03-.88-.08-1.4h1.67c-.07.53-.08.8-.08,1.4v2.37h1.42c.62,0,.97-.01,1.33-.07v1.53c-.43-.04-.85-.07-1.33-.07h-1.42v5.25Z"/>
      </g>
      <g>
        <path d="M221.62,224.31c-.52.86-.84,1.28-1.56,2-.27-.32-.57-.56-1.08-.87.34-.31.43-.42.67-.7-.31-.01-.56-.03-.98-.03h-1.41c0,.2-.01.35-.01.45,0,.24-.01.56-.03.98h1.34c.55,0,.83-.02,1.08-.04q-.03.36-.06,2.28c-.03,2.07-.17,3.61-.39,4.31-.22.67-.67.92-1.69.92-.25,0-.38,0-.73-.03-.03-.56-.1-.97-.27-1.46.32.08.62.13.92.13.43,0,.5-.11.6-.91.11-.77.15-1.85.18-3.91h-1.06c-.11,1.75-.22,2.54-.5,3.57-.34,1.23-.67,1.95-1.34,2.89-.36-.6-.6-.9-1.05-1.28.7-.92,1.11-1.99,1.34-3.56.18-1.15.25-2.18.28-4.36h-.15c-.57,0-.88.01-1.19.07v-1.46c.36.07.7.08,1.32.08h.85v-.71c0-.5-.03-.84-.07-1.19h1.58c-.06.35-.07.66-.07,1.18v.73h.53c.55,0,.9-.01,1.22-.07v1.12c.77-1.02,1.32-2.17,1.44-3l1.48.28c-.08.18-.15.35-.25.57-.13.31-.15.41-.28.67h3.18c.6,0,1.02-.03,1.39-.08v1.46c-.38-.04-.73-.06-1.3-.06h-.9l.95.81q-.25.18-.49.36c-.11.08-.77.59-.99.73.1.83.14,1.09.28,1.68.64-.45,1.11-.9,1.57-1.5l.91,1.04c-.74.76-1.33,1.28-2.04,1.78.64,1.44,1.2,2.23,2.25,3.12-.39.46-.6.8-.88,1.48-1.2-1.12-1.86-2.07-2.45-3.54-.41-.99-.62-1.86-.81-3.3-.25.15-.34.2-.56.32v5.15c0,.57.03.99.07,1.39h-1.55c.04-.37.07-.8.07-1.39v-4.44q-.1.04-.2.1c-.14.07-.24.11-.46.22-.18-.56-.32-.85-.64-1.32.94-.32,1.68-.67,2.73-1.3.81-.49,1.19-.76,1.97-1.4h-2.76Z"/>
        <path d="M231.45,229.82c0-.55,0-.73.03-1.56-.36.42-.77.8-1.22,1.13-.22-.6-.38-.95-.69-1.44,1.43-.91,2.8-2.38,3.32-3.54l1.26.84c-.14.15-.25.31-.45.59-.31.45-.42.6-.77,1.04v5.31c0,.73.03,1.26.08,1.69h-1.67c.06-.42.1-1.01.1-1.71v-2.35ZM233.94,222.31q-.17.18-.41.46c-.91,1.08-1.82,1.88-3.1,2.69-.28-.53-.49-.85-.84-1.28,1.05-.57,1.74-1.11,2.4-1.85.31-.34.48-.59.66-.94l1.29.91ZM235.76,226.93c-.63,0-1.23.03-1.65.08v-1.51c.42.05,1.01.08,1.65.08h4.57c.76,0,1.3-.03,1.64-.08v1.51c-.45-.05-1.01-.08-1.6-.08h-.57v5.35c0,1.16-.39,1.44-2,1.44-.49,0-.92-.02-1.51-.04-.07-.59-.17-.95-.38-1.5.7.1,1.4.15,1.82.15.53,0,.6-.04.6-.34v-5.07h-2.56ZM234.64,222.08c.36.05.87.08,1.57.08h3.63c.69,0,1.13-.03,1.54-.08v1.5c-.48-.06-.98-.08-1.51-.08h-3.66c-.56,0-1.13.03-1.57.08v-1.5Z"/>
        <path d="M252.47,227.69c0,.93-.74,1.67-1.67,1.67s-1.67-.74-1.67-1.67.74-1.67,1.67-1.67,1.67.74,1.67,1.67Z"/>
        <path d="M259.43,227.18q.11.01.29.03h.17s.32,0,.57-.02c.01-.87.03-1.54.03-1.99,0-1.33-.01-1.88-.08-2.39.31.04.64.05,1.05.05h.46c.21-.59.31-.98.38-1.48l1.44.17c-.22.67-.29.86-.48,1.32h.8c.48,0,.77-.01,1.08-.05-.03.28-.04.6-.04,1.05v2.88l.63-.08v1.28s-.63.1-.63.1v4.3c0,.2-.01.31-.06.49.48-.44.77-.93,1-1.67.27-.9.38-2.21.38-4.57,0-.38-.01-.73-.04-1.05.24.03.66.04,1.15.04h1.78c.52,0,.98-.02,1.19-.04-.03.24-.04.67-.04,1.22v5.25c0,.14.07.2.27.2.13,0,.2-.03.24-.11.06-.14.1-.77.1-1.67,0-.21,0-.55-.01-.97.52.32.63.38,1.18.56-.03,2.19-.13,2.93-.43,3.31-.24.27-.55.35-1.28.35-1.09,0-1.44-.25-1.44-1.01v-5.81h-1.36c-.01,2.66-.08,3.53-.34,4.61-.25,1.08-.53,1.62-1.37,2.59-.27-.44-.53-.73-.98-1.11-.18.52-.56.69-1.57.69-.15,0-.41-.01-.71-.04-.03-.56-.08-.9-.27-1.39.38.08.77.13,1.15.13.21,0,.28-.06.28-.27v-3.87q-.5.05-.62.07v2.12c0,.6.01.9.04,1.13h-1.19c.04-.27.06-.53.06-1.13v-1.99c-.31.03-.48.04-.53.06-.07,2.52-.41,4.15-1.15,5.53-.39-.49-.67-.79-1.09-1.08.64-1.07.91-2.21,1.01-4.34-.56.04-.67.06-.85.1l-.14-1.48ZM261.73,224.06c0,1.96,0,2.17-.03,3.05.78-.07,1.51-.14,2.2-.21v-2.84h-2.17ZM262.81,224.34c.41.7.6,1.15.85,1.91l-.97.5c-.22-.76-.42-1.23-.79-1.93l.9-.48ZM267.78,222.62c0-.54-.01-.84-.07-1.13h1.53c-.06.37-.07.64-.07,1.13v.69h1.6c.55,0,.85-.02,1.23-.07v1.44c-.36-.05-.7-.07-1.23-.07h-4.08c-.55,0-.85.01-1.23.07v-1.44c.38.05.67.07,1.23.07h1.09v-.69Z"/>
        <path d="M277.54,230.08c-.73,0-1.12.01-1.54.08v-1.51c.42.07.78.08,1.41.08h6.82c.64,0,1.18-.03,1.58-.08v1.51c-.43-.06-.88-.08-1.56-.08h-2.69v1.97h3.7c.7,0,1.27-.03,1.65-.08v1.5c-.46-.05-1-.08-1.65-.08h-8.7c-.69,0-1.22.03-1.68.08v-1.5c.29.04,1.09.08,1.68.08h3.5v-1.97h-2.54ZM280.04,222.32c0-.37-.01-.56-.07-.87h1.64c-.04.24-.07.52-.07.87v.46h3.7c.63,0,1-.01,1.49-.05-.04.29-.06.54-.06.99v.74c0,.39.01.66.07,1.01h-1.48v-1.39h-2.56v2.06c0,.25.1.31.52.32.08,0,.25,0,.49.02h.06c.45,0,.98-.04,1.11-.1.17-.05.22-.24.22-.74.49.22.81.32,1.39.44-.08.8-.21,1.13-.5,1.36-.36.25-.87.32-2.52.32-1.04,0-1.51-.05-1.79-.22-.28-.17-.36-.37-.36-.84v-2.61h-1.18c-.06,1.09-.35,1.91-.94,2.56-.45.5-1.07.91-1.88,1.27-.38.15-.71.28-1.47.52-.21-.48-.49-.88-.85-1.28,1.33-.27,2.03-.53,2.69-1.02.71-.53.94-.95,1.04-2.06h-2.14v1.79h-1.5c.06-.36.07-.69.07-1.09v-1.06c0-.42-.01-.69-.06-.99.5.04.85.05,1.48.05h3.49v-.46Z"/>
        <path d="M292.56,225.91c-.9.56-1.21.73-2.16,1.16-.24-.55-.45-.91-.79-1.39,1.43-.56,2.37-1.08,3.38-1.86.9-.69,1.57-1.41,2.13-2.27h1.58c.71.99,1.26,1.53,2.28,2.24,1.13.81,2.24,1.39,3.46,1.82-.38.57-.56.95-.76,1.51-.84-.37-1.36-.64-2.28-1.23v1.05c-.36-.04-.7-.05-1.21-.05h-4.5c-.38,0-.78.01-1.15.05v-1.04ZM291.82,229.37c-.7,0-1.15.03-1.58.08v-1.55c.42.04.95.07,1.58.07h8.36c.67,0,1.13-.03,1.58-.07v1.55c-.45-.06-.9-.08-1.58-.08h-4.61c-.45,1.02-.87,1.81-1.4,2.61q2.33-.13,4.26-.34c-.43-.48-.67-.73-1.42-1.48l1.33-.59c1.44,1.46,2.03,2.14,3.11,3.57l-1.3.86c-.38-.57-.49-.74-.8-1.16-1.12.14-1.92.24-2.42.28-1.4.14-3.95.38-4.52.42-.76.04-1.43.11-1.74.18l-.21-1.64c.41.03.57.04.76.04.11,0,.52-.01,1.2-.06.66-1.01,1.08-1.81,1.43-2.69h-2.03ZM298.19,225.49c.18,0,.31,0,.59-.01-1.22-.81-2-1.54-2.82-2.62-.7.95-1.51,1.72-2.79,2.62.22.01.34.01.55.01h4.47Z"/>
        <path d="M308.3,232.55c0,.63.01.98.08,1.37h-1.62c.06-.41.08-.77.08-1.4v-3.38c-.55.49-.83.7-1.5,1.15-.17-.52-.41-1.01-.69-1.4.94-.54,1.58-1.05,2.31-1.82.63-.66,1.02-1.22,1.46-2.07h-2.19c-.48,0-.8.02-1.12.06v-1.5c.35.04.62.05,1.05.05h.69v-1.12c0-.37-.03-.71-.08-1.02h1.61c-.06.29-.07.62-.07,1.04v1.11h.56c.41,0,.56-.01.77-.04l.64.7c-.11.18-.2.35-.29.57-.45.98-.69,1.39-1.34,2.3.63.71,1.25,1.21,2.13,1.7-.31.43-.5.8-.73,1.33-.71-.45-1.13-.83-1.75-1.51v3.89ZM314.01,231.9h1.61c.67,0,1.13-.03,1.54-.07v1.61c-.48-.06-.99-.08-1.54-.08h-4.59c-.56,0-1.05.03-1.51.08v-1.61c.42.04.9.07,1.53.07h1.47v-5.25h-1.01c-.45,0-.9.03-1.32.07v-1.53c.38.06.76.07,1.32.07h1.01v-2.37c0-.56-.03-.88-.08-1.4h1.67c-.07.53-.08.8-.08,1.4v2.37h1.42c.62,0,.97-.01,1.33-.07v1.53c-.43-.04-.85-.07-1.33-.07h-1.42v5.25Z"/>
      </g>
    </g>
  </g>
</svg>