<?xml version="1.0" encoding="UTF-8"?>
<svg id="_レイヤー_2" data-name="レイヤー 2" xmlns="http://www.w3.org/2000/svg" width="374" height="77.36" viewBox="0 0 374 77.36">
  <defs>
    <style>
      .cls-1 {
        fill: #d4e9de;
      }

      .cls-2 {
        fill: #fff;
      }

      .cls-3 {
        fill: #739b9e;
      }
    </style>
  </defs>
  <g id="_レイヤー_1-2" data-name="レイヤー 1">
    <g>
      <rect class="cls-1" x="0" y="0" width="374" height="77.36"/>
      <rect class="cls-2" x="7.58" y="14.39" width="358.85" height="51.32" rx="25.57" ry="25.57"/>
      <g>
        <path class="cls-3" d="M115.82,35.27c0-.67-.03-1.2-.1-1.84h1.89c-.06.5-.1,1.07-.1,1.84v1.5h2.5v-1.68c0-.64-.03-1.12-.1-1.68h1.84c-.06.53-.1,1.04-.1,1.65v1.71h2.59v-1.71c0-.7-.02-1.12-.1-1.65h1.86c-.06.54-.1,1.02-.1,1.65v1.71h.54c.7,0,1.22-.03,1.68-.1v1.73c-.5-.06-.99-.1-1.68-.1h-.54v3.38c0,.48.02.91.06,1.39-.38-.03-.77-.05-1.28-.05h-3.41c-.53,0-.91.02-1.33.05.03-.35.05-.78.05-1.3v-3.47h-2.5v6.83h8.02c.83,0,1.31-.02,1.94-.1v1.78c-.64-.06-1.22-.1-1.94-.1h-8.02v.82h-1.79c.06-.66.1-1.31.1-2.16v-7.07h-.3c-.69,0-1.22.03-1.7.1v-1.73c.5.06.99.1,1.7.1h.3v-1.5ZM121.66,38.31v3.23h2.59v-3.23h-2.59Z"/>
        <path class="cls-3" d="M132.45,40.09c-.64,0-1.12.02-1.62.06.06-.48.08-.86.08-1.58v-3.2c0-.77-.02-1.15-.08-1.63.51.05.91.06,1.66.06h8.24c.74,0,1.14-.02,1.65-.06-.06.43-.08.86-.08,1.63v3.2c0,.72.02,1.15.08,1.58-.5-.05-.96-.06-1.63-.06h-1.36c1.01.99,2.58,1.79,4.5,2.3-.37.58-.54.91-.82,1.67-1.36-.51-2.48-1.09-3.34-1.7v3.39c0,.67.03,1.18.1,1.7h-1.86c.06-.48.1-.98.1-1.7v-2.86c0-.58-.02-.88-.06-1.22h.88c-.74-.62-.96-.86-1.52-1.58h-1.6c-.43.62-.77.99-1.44,1.6h1.15c-.03.16-.05.37-.06.7-.1,2.85-1.25,4.21-4.39,5.2-.32-.58-.43-.74-1.02-1.42,1.46-.38,2.16-.7,2.82-1.26.62-.53.93-1.36.93-2.54v-.19c-1.06.8-1.97,1.28-3.55,1.89-.32-.77-.45-1.02-.85-1.58,1.95-.53,3.42-1.34,4.37-2.38h-1.26ZM132.56,36.36h3.19v-1.17h-3.19v1.17ZM132.56,38.81h3.19v-1.14h-3.19v1.14ZM137.33,36.36h3.33v-1.17h-3.33v1.17ZM137.33,38.81h3.33v-1.14h-3.33v1.14Z"/>
        <path class="cls-3" d="M151.41,43.58c-.77,1.33-1.83,2.06-2.91,2.06-1.66,0-2.85-1.63-2.85-3.91,0-2.53,1.28-4.71,3.47-5.86,1.07-.58,2.22-.83,3.75-.83,3.34,0,5.83,2.37,5.83,5.54,0,2.8-1.38,4.82-4.03,5.95-.53.22-.94.35-1.15.35-.19,0-.27-.06-.48-.37-.27-.42-.58-.72-1.01-1.01,3.3-.85,4.79-2.4,4.79-4.99,0-1.33-.56-2.45-1.55-3.15-.56-.38-1.01-.54-1.89-.69-.45,3.38-.98,5.22-1.95,6.9ZM149.1,37.91c-1.07.94-1.68,2.29-1.68,3.79,0,1.23.4,1.95,1.07,1.95.8,0,1.62-1.1,2.23-3.01.38-1.2.58-2.11.82-3.89-1.14.24-1.7.51-2.43,1.15Z"/>
        <path class="cls-3" d="M166.85,34.9c0-.74-.03-1.12-.1-1.54h1.94c-.08.45-.1.82-.1,1.54v3.35h3.27v-2.5c0-.5-.02-.82-.06-1.2h1.86c-.06.45-.08.77-.08,1.33v3.04c0,.4.02.7.05.98-.32-.03-.7-.05-1.09-.05h-3.94v5.06h3.78v-2.53c0-.54-.03-.96-.08-1.33h1.87c-.06.38-.08.86-.08,1.47v3.3c0,.72.02,1.12.08,1.55h-1.79v-.8h-9.12v.8h-1.81c.06-.46.1-.91.1-1.55v-3.23c0-.62-.03-1.04-.08-1.47h1.86c-.05.38-.06.69-.06,1.31v2.48h3.6v-5.06h-3.68c-.42,0-.77.02-1.1.05.03-.4.05-.62.05-.98v-3.03c0-.56-.03-.96-.08-1.34h1.86c-.05.35-.06.7-.06,1.22v2.48h3.03v-3.35Z"/>
        <path class="cls-3" d="M178.32,41.29c-.74,0-1.23.03-1.81.1v-1.74c.51.08.93.1,1.79.1h1.33c-.35-.99-.64-1.63-1.19-2.55l1.44-.66c.53.88.7,1.25,1.28,2.66l-1.22.54h2.46v-3.33h-3.47c-.74,0-1.18.02-1.71.08v-1.71c.54.06,1.01.1,1.79.1h3.39v-.43c0-.48-.02-.77-.08-1.18h1.86c-.06.4-.08.67-.08,1.2v.42h3.65c.9,0,1.39-.03,1.82-.1v1.71c-.46-.06-.91-.08-1.71-.08h-3.76v3.33h1.06c.69-1.09,1.12-2,1.49-3.09l1.62.53c-.4.94-.72,1.57-1.33,2.56h1.6c.93,0,1.36-.02,1.78-.1v1.74c-.51-.06-1.07-.1-1.86-.1h-3.38c1.33,1.79,3.01,3.04,5.52,4.07-.46.56-.69.93-1.04,1.62-1.52-.78-2.45-1.39-3.47-2.32-.83-.75-1.36-1.36-2.03-2.37.03.78.05,1.1.05,1.46v2.18c0,.58.03,1.06.11,1.57h-1.92c.08-.51.11-.93.11-1.57v-2.16c0-.5.02-.82.05-1.44-.7,1.15-1.44,1.98-2.55,2.9-.85.7-1.65,1.23-2.61,1.74-.37-.69-.58-1.01-1.04-1.55,1.41-.62,2.59-1.41,3.76-2.48.5-.45.82-.82,1.41-1.63h-3.12Z"/>
        <path class="cls-3" d="M198.05,41.02h-3.63c-.56,0-.99.02-1.41.06v-1.34c.35.05.77.06,1.44.06h3.6v-.59h-3.25c-.54,0-.93.02-1.3.05.03-.34.05-.64.05-1.04v-1.01c0-.43-.02-.67-.05-1.07.43.03.74.05,1.31.05h3.23v-.58h-4.21c-.77,0-1.25.02-1.79.08v-1.52c.48.06.99.1,1.89.1h4.11c-.02-.54-.03-.7-.1-1.06h1.84c-.06.34-.08.48-.1,1.06h4.32c.9,0,1.39-.03,1.89-.1v1.52c-.51-.05-1.06-.08-1.79-.08h-4.42v.58h3.49c.59,0,.9-.02,1.28-.05-.03.35-.05.59-.05,1.07v1.01c0,.48.02.7.05,1.04-.35-.03-.72-.05-1.22-.05h-3.55v.59h3.47c.9,0,1.15-.02,1.63-.05-.05.4-.05.59-.05,1.39v.54c.67,0,1.01-.03,1.33-.08v1.46c-.37-.05-.66-.08-1.33-.08v.9c0,.82.02,1.18.08,1.65h-1.71v-.59h-3.42v.86c0,1.38-.38,1.66-2.24,1.66-.38,0-.94-.02-1.49-.05-.08-.62-.18-.93-.46-1.54.82.1,1.39.14,1.92.14s.62-.06.62-.37v-.72h-3.62c-.67,0-1.07.02-1.52.06v-1.41c.42.05.67.06,1.47.06h3.67v-.67h-4.4c-.87,0-1.3.02-1.7.08v-1.46c.42.06.77.08,1.66.08h4.43v-.67ZM195.18,37.38v.62h2.87v-.62h-2.87ZM199.7,38.01h3.09v-.62h-3.09v.62ZM203.12,41.69v-.67h-3.42v.67h3.42ZM199.7,43.66h3.42v-.67h-3.42v.67Z"/>
        <path class="cls-3" d="M212.41,38.66c-.21-.7-.27-1.14-.46-3.1-.06-.77-.13-1.15-.29-1.7.98.02,1.6.06,2.03.18.24.06.35.18.35.35,0,.06-.02.14-.05.27-.11.38-.16.67-.16,1.09,0,.78.16,2.06.34,2.62.1.3.19.42.37.42.38,0,1.79-.74,2.56-1.33.21-.16.24-.18.32-.18.14,0,.29.11.53.42.4.54.72,1.14.72,1.36,0,.18-.11.29-.38.37-.99.27-2.62.91-3.73,1.44-1.95.96-2.83,1.84-2.83,2.83s.82,1.38,2.88,1.38c1.2,0,2.29-.11,3.76-.35.06-.02.18-.03.21-.03.13,0,.21.06.27.19.05.16.16,1.14.16,1.52,0,.22-.06.3-.27.37-.35.08-2.29.19-3.51.19-2.05,0-3.41-.27-4.26-.85-.72-.5-1.1-1.28-1.1-2.24,0-.74.21-1.39.64-2.03.56-.83,1.17-1.36,2.51-2.16-.34-.3-.46-.53-.61-1.02Z"/>
        <path class="cls-3" d="M233.26,39.25h2.27c.72,0,1.17-.03,1.65-.1v1.74c-.51-.05-.99-.08-1.67-.08h-1.73c.91,1.6,2.24,2.93,3.83,3.83-.51.51-.74.83-1.06,1.6-.66-.46-1.12-.91-1.73-1.6-.78-.91-1.12-1.41-1.63-2.37.03.58.05,1.07.05,1.54v1.94c0,.72.03,1.28.1,1.78h-1.78c.06-.5.1-1.07.1-1.79v-1.82c0-.43.02-.94.05-1.58-.98,1.76-2.06,2.95-3.62,3.99-.4-.75-.62-1.07-.96-1.46,1.65-.94,2.99-2.32,3.92-4.03h-1.01c-.69,0-1.19.03-1.68.1v-.64c-.27.38-.46.74-.66,1.3-.4-.62-.64-1.12-.94-1.92.03.5.06,1.36.06,2.03v3.94c0,.82.03,1.41.1,1.89h-1.78c.06-.5.1-1.09.1-1.89v-3.31c0-.61.02-.99.11-1.98-.46,1.55-.93,2.59-1.62,3.63-.19-.72-.4-1.18-.72-1.71.77-.98,1.57-2.79,2.05-4.64h-.61c-.46,0-.74.02-1.02.06v-1.63c.26.05.54.06,1.02.06h.77v-1.23c0-.82-.02-1.22-.08-1.6h1.76c-.06.42-.08.85-.08,1.6v1.23h.46c.38,0,.58-.02.83-.06v1.52c.61-1.09,1.12-2.69,1.17-3.73l1.55.4c-.06.18-.11.37-.22.85-.08.29-.11.43-.19.74h1.23v-1.06c0-.66-.03-1.06-.1-1.46h1.79c-.06.38-.1.82-.1,1.46v1.06h1.81c.77,0,1.22-.03,1.65-.1v1.68c-.45-.05-.96-.08-1.65-.08h-1.81v1.94ZM229.92,37.32c-.27.66-.42.96-.86,1.71q-.38-.4-1.25-1.01c.13-.18.18-.26.26-.37-.21-.03-.46-.05-.75-.05h-.4c.37.85.75,1.49,1.46,2.43v-.88c.48.06.93.1,1.67.1h1.63v-1.94h-1.75Z"/>
        <path class="cls-3" d="M240,41.14c0-.61.02-1.06.03-1.68-.27.54-.61,1.06-1.01,1.58-.21-.75-.37-1.18-.67-1.84.98-1.07,1.7-2.31,2.3-3.99.34-.93.48-1.44.58-2.11l1.65.67c-.11.34-.16.46-.29.85q-.3.94-.99,2.53v8.58c0,.85.02,1.31.06,1.78h-1.76c.08-.61.1-1.06.1-1.79v-4.58ZM251.14,37.73c.58,0,1.04-.02,1.39-.06-.05.4-.06.82-.06,1.44v6.39c0,.77.03,1.3.1,1.92h-1.76v-.85h-6.51v.83h-1.7c.05-.51.08-1.12.08-1.68v-6.58c0-.54-.03-1.06-.06-1.47.43.05.77.06,1.39.06h1.46v-2.06h-.77c-.74,0-1.31.03-1.81.08v-1.71c.45.06.98.1,1.81.1h6.43c.85,0,1.41-.03,1.87-.1v1.71c-.45-.05-1.09-.08-1.82-.08h-1.58v2.06h1.55ZM244.22,39.21v5.87h1.23v-5.87h-1.23ZM248.11,35.67h-1.19v2.06h1.19v-2.06ZM246.93,45.08h1.19v-5.87h-1.19v5.87ZM249.58,45.08h1.28v-5.87h-1.28v5.87Z"/>
      </g>
      <g>
        <g>
          <path class="cls-3" d="M43.15,35.58c.02-1.97.63-3.49,1.83-4.55,1.13-1.05,2.47-1.58,4.03-1.58s2.98.53,4.1,1.58c1.15,1.06,1.74,2.58,1.78,4.56v9.42c-.04,1.96-.63,3.48-1.78,4.54-1.13,1.05-2.5,1.59-4.1,1.61-1.56-.02-2.91-.56-4.03-1.61-1.2-1.06-1.81-2.57-1.83-4.53v-9.44ZM51.94,35.77c-.06-2.14-1.03-3.23-2.92-3.27-1.9.04-2.87,1.13-2.91,3.27v9.07c.04,2.16,1.01,3.25,2.91,3.27,1.89-.02,2.87-1.11,2.92-3.27v-9.07Z"/>
          <path class="cls-3" d="M58.05,29.63h11.03v3.05h-8.25v4.87c.97-.78,2.07-1.17,3.32-1.17.8.02,1.53.17,2.19.44.63.3,1.13.67,1.52,1.11.58.59.99,1.26,1.25,2.04.13.42.23.93.28,1.54.06.61.08,1.37.08,2.27,0,1.39-.09,2.45-.28,3.19-.2.73-.53,1.38-.99,1.95-.41.55-1,1.06-1.77,1.52-.76.48-1.66.72-2.7.74-1.4,0-2.68-.43-3.85-1.29-1.18-.88-1.92-2.29-2.2-4.25h2.97c.32,1.64,1.31,2.48,2.97,2.5.71,0,1.28-.15,1.71-.44.41-.28.69-.66.85-1.12.17-.46.27-.96.31-1.5.02-.53.03-1.04.03-1.54.02-1.22-.17-2.22-.56-2.98-.21-.36-.52-.65-.93-.87-.41-.18-.92-.26-1.52-.26-.54,0-1.04.13-1.48.38-.45.26-.85.72-1.2,1.38h-2.78v-11.54Z"/>
        </g>
        <path class="cls-3" d="M33.72,42.84c-.76.79-1.8,1.41-3.01,1.81-.17-.32-.31-.52-.56-.82,1.2-.29,2.21-.79,2.94-1.47h-1.5c-.05.18-.06.22-.13.43l-1.01-.02c.24-.56.38-1.02.49-1.58.08-.39.14-.77.14-.95.17.02.4.03.82.03h1.78l-.02-.58h-1.93c-.34,0-.56,0-.8.04v-.83c-.1.08-.13.12-.26.23-.17-.29-.35-.5-.56-.69.74-.57,1.16-1.12,1.35-1.76l.93.17c-.11.23-.14.29-.25.47h1.11c.41,0,.64-.02.85-.04v.7c.34-.4.55-.78.7-1.3l.92.16q-.07.17-.22.49h1.65c.46,0,.67,0,.95-.05v.9c-.26-.04-.52-.05-.9-.05h-.68c.23.33.23.35.38.59l-.71.2h.41c.43,0,.59,0,.81-.03-.03.16-.04.3-.04.61v.91c0,.31,0,.45.04.63-.2-.02-.47-.03-.81-.03h-1.99v.57h2.47c.33,0,.52,0,.74-.03-.02.11-.02.17-.03.26t-.03.26s-.02.22-.05.55c-.09.86-.14,1.07-.31,1.27-.17.2-.43.26-1.02.26-.25,0-.43,0-.8-.03-.05-.36-.11-.56-.22-.85.33.04.74.08.95.08.47,0,.49-.05.55-1.01h-2.22l.02,1.45c0,.46.02.68.06.95h-1.02c.04-.25.05-.4.05-.75v-.22l-.02-.96ZM32.48,38.94c-.11-.29-.22-.5-.39-.8h-.48c-.21.29-.4.5-.68.77.21.03.38.04.79.04h.75ZM33.69,41.04h-1.77c-.03.19-.04.21-.12.57h1.9v-.57ZM34.18,38.94c-.13-.16-.31-.33-.56-.51.15-.12.2-.15.32-.27-.15,0-.32-.02-.49-.02h-.48c.11.17.17.26.34.58l-.71.22h1.58ZM36.01,38.94c-.1-.22-.26-.51-.44-.79h-.53c-.23.33-.42.55-.69.79h1.67ZM34.59,40.28h1.87v-.58h-1.88v.58Z"/>
        <path class="cls-3" d="M79.8,44.74v-.47h-5.38v.47h-1.01c.04-.28.05-.64.05-1.12v-5.46c0-.42-.02-.69-.05-1.04.32.04.59.05,1.02.05h5.36c.42,0,.7,0,1.02-.05-.04.32-.04.6-.04,1.04v5.47c0,.47.02.89.04,1.11h-1ZM74.42,43.42h5.38v-5.39h-5.38v5.39ZM78.02,39.01c.38,0,.6,0,.83-.03-.02.21-.03.41-.03.68v2.06c0,.29,0,.47.03.68-.26-.02-.47-.03-.83-.03h-1.85c-.43,0-.57,0-.84.03.03-.23.04-.42.04-.68v-2.06c0-.25,0-.45-.04-.68.22.02.46.03.84.03h1.85ZM76.28,41.58h1.63v-1.76h-1.63v1.76Z"/>
      </g>
      <rect class="cls-1" x="95.06" y="32.52" width="1.42" height="15.06"/>
    </g>
  </g>
</svg>